<svg fill="#FFFFFF" xmlns="http://www.w3.org/2000/svg"  viewBox="0 0 50 50" width="40px" height="40px"><path d="M 30.65625 0.03125 C 29.75 0.0820313 28.933594 0.261719 28.1875 0.59375 C 26.699219 1.257813 25.566406 2.421875 24.75 3.6875 C 24.105469 4.683594 23.644531 5.765625 23.3125 6.8125 C 22.605469 5.230469 21.710938 4.011719 20.78125 3.125 C 19.058594 1.484375 17.257813 0.9375 16.03125 0.9375 C 14.074219 0.9375 11.878906 2.183594 11 4.40625 C 10.269531 6.253906 10.664063 8.574219 11.65625 10.96875 C 12.015625 11.835938 12.445313 12.722656 12.96875 13.59375 C 10.960938 12.746094 9.089844 12.4375 7.5625 12.4375 C 6.144531 12.4375 4.3125 12.824219 2.75 14 C 1.1875 15.175781 0 17.214844 0 20.15625 C 0 21.699219 0.488281 23.007813 1.28125 23.96875 C 2.074219 24.929688 3.117188 25.539063 4.21875 25.9375 C 4.875 26.175781 5.550781 26.359375 6.21875 26.46875 C 5.710938 26.855469 5.238281 27.265625 4.8125 27.71875 C 3.3125 29.320313 2.378906 31.394531 2.875 33.53125 C 3.148438 34.710938 3.921875 35.699219 5 36.3125 C 6.078125 36.925781 7.417969 37.21875 8.96875 37.21875 C 9.925781 37.21875 11.117188 37.152344 12.28125 36.9375 C 11.058594 38.636719 10.1875 40.789063 10.1875 42.75 C 10.1875 43.707031 10.507813 45.359375 11.625 46.96875 C 12.742188 48.578125 14.761719 50 17.84375 50 C 21.917969 50 24.347656 47.691406 25.40625 45.0625 C 25.6875 44.363281 25.890625 43.652344 26.03125 42.9375 C 26.484375 43.566406 26.984375 44.15625 27.53125 44.65625 C 29.042969 46.042969 30.753906 47.007813 32.40625 46.875 C 33.195313 46.8125 34.234375 46.472656 35.1875 45.625 C 36.140625 44.777344 36.90625 43.382813 36.90625 41.46875 C 36.90625 39.921875 36.824219 38.574219 36.625 37.40625 C 39.40625 39.074219 42.128906 39.125 42.875 39.125 C 43.300781 39.125 45.058594 39.152344 46.75 38.1875 C 48.441406 37.222656 50 35.148438 50 31.625 C 50 28.214844 48.019531 25.757813 45.59375 24.375 C 45.039063 24.058594 44.464844 23.78125 43.875 23.5625 C 45.441406 22.988281 46.753906 21.949219 47.6875 20.71875 C 48.707031 19.378906 49.316406 17.777344 48.9375 16.21875 C 48.464844 14.269531 46.546875 11.96875 42.875 11.96875 C 41.199219 11.96875 39.789063 12.234375 38.46875 12.71875 C 39.179688 11.324219 39.699219 9.636719 39.75 7.875 C 39.792969 6.351563 39.460938 4.765625 38.46875 3.40625 C 37.476563 2.046875 35.867188 0.953125 33.59375 0.34375 C 32.550781 0.0625 31.5625 -0.0195313 30.65625 0.03125 Z M 30.78125 2 C 31.449219 1.960938 32.199219 2.050781 33.0625 2.28125 C 35.003906 2.804688 36.15625 3.617188 36.84375 4.5625 C 37.53125 5.507813 37.785156 6.625 37.75 7.8125 C 37.683594 10.1875 36.296875 12.832031 35.3125 13.8125 C 34.496094 14.625 34.210938 14.9375 33.3125 15.84375 C 33.238281 15.902344 33.167969 15.941406 33.09375 16 C 32.988281 16.085938 32.90625 16.191406 32.84375 16.3125 C 31.246094 17.925781 29.480469 19.703125 29.1875 20 C 28.183594 19.089844 26.929688 18.46875 25.53125 18.25 C 25.503906 18.054688 24.839844 13.015625 24.65625 11.71875 C 24.636719 11.585938 24.613281 11.472656 24.59375 11.34375 C 24.632813 11.234375 24.65625 11.117188 24.65625 11 C 24.613281 9.671875 25.113281 6.800781 26.4375 4.75 C 27.101563 3.726563 27.945313 2.90625 29 2.4375 C 29.527344 2.203125 30.113281 2.039063 30.78125 2 Z M 16.03125 2.9375 C 16.554688 2.9375 18.039063 3.292969 19.40625 4.59375 C 20.773438 5.894531 22.117188 8.136719 22.65625 12 C 22.828125 13.238281 23.449219 17.640625 23.53125 18.21875 C 22.550781 18.34375 21.628906 18.675781 20.8125 19.15625 C 20.488281 18.894531 19.25 17.921875 18.0625 16.90625 C 18.0625 16.894531 18.0625 16.886719 18.0625 16.875 C 18.011719 16.78125 17.949219 16.699219 17.875 16.625 C 15.925781 14.644531 14.378906 12.3125 13.5 10.1875 C 12.621094 8.0625 12.472656 6.171875 12.875 5.15625 C 13.378906 3.878906 15.105469 2.9375 16.03125 2.9375 Z M 42.875 13.96875 C 45.773438 13.96875 46.675781 15.480469 46.96875 16.6875 C 47.152344 17.4375 46.855469 18.527344 46.09375 19.53125 C 45.332031 20.535156 44.148438 21.417969 42.84375 21.8125 C 41.644531 22.175781 40.570313 22.472656 39.375 22.65625 C 38.980469 22.714844 38.511719 22.796875 38 22.875 C 37.964844 22.878906 37.941406 22.871094 37.90625 22.875 C 37.875 22.882813 37.84375 22.894531 37.8125 22.90625 C 35.378906 23.277344 32.109375 23.761719 31.375 23.875 C 31.210938 23.035156 30.90625 22.238281 30.46875 21.53125 C 30.714844 21.28125 32.734375 19.222656 34.5625 17.375 C 37.601563 14.988281 39.410156 13.96875 42.875 13.96875 Z M 7.5625 14.4375 C 9.84375 14.4375 12.988281 15.121094 16.40625 18.09375 C 17.472656 19.019531 18.585938 19.921875 19.21875 20.4375 C 18.550781 21.15625 18.011719 22.023438 17.6875 22.96875 C 17.21875 23.011719 14.53125 23.269531 10.59375 24.3125 C 10.433594 24.355469 10.28125 24.421875 10.125 24.46875 C 8.859375 24.664063 6.625 24.683594 4.90625 24.0625 C 4.046875 23.75 3.316406 23.296875 2.8125 22.6875 C 2.308594 22.078125 2 21.300781 2 20.15625 C 2 17.71875 2.839844 16.421875 3.9375 15.59375 C 5.035156 14.765625 6.496094 14.4375 7.5625 14.4375 Z M 24.4375 20.15625 C 27.265625 20.15625 29.53125 22.414063 29.53125 25.21875 C 29.53125 26.621094 28.949219 27.898438 28.03125 28.8125 C 27.113281 29.726563 25.851563 30.28125 24.4375 30.28125 C 21.609375 30.28125 19.3125 28.023438 19.3125 25.21875 C 19.3125 22.414063 21.609375 20.15625 24.4375 20.15625 Z M 39 24.78125 C 40.71875 24.703125 42.894531 25.136719 44.625 26.125 C 46.601563 27.253906 48 28.953125 48 31.625 C 48 34.605469 46.90625 35.808594 45.75 36.46875 C 44.59375 37.128906 43.300781 37.125 42.875 37.125 C 42.070313 37.125 38.972656 37.078125 36.25 34.6875 C 35.691406 34.195313 35.621094 34.171875 35.0625 33.6875 C 32.714844 31.644531 30.652344 29.867188 30.125 29.40625 C 30.878906 28.394531 31.375 27.195313 31.5 25.875 C 32.097656 25.785156 35.507813 25.261719 38.03125 24.875 C 38.128906 24.859375 38.1875 24.859375 38.28125 24.84375 C 38.503906 24.8125 38.753906 24.792969 39 24.78125 Z M 17.3125 25.03125 C 17.3125 25.09375 17.3125 25.15625 17.3125 25.21875 C 17.3125 26.410156 17.625 27.546875 18.15625 28.53125 C 18.074219 28.675781 18 28.824219 18 29 C 18 29.363281 18.207031 29.667969 18.5 29.84375 C 18.257813 30.113281 17.566406 30.882813 16.90625 31.625 C 16.753906 31.265625 16.414063 31 16 31 C 15.449219 31 15 31.449219 15 32 C 15 32.449219 15.3125 32.8125 15.71875 32.9375 C 15.515625 33.167969 15.480469 33.214844 15.28125 33.4375 C 15.066406 33.476563 14.867188 33.585938 14.71875 33.75 C 14.511719 33.96875 14.179688 34.183594 13.78125 34.375 C 13.597656 34.148438 13.316406 34 13 34 C 12.472656 34 12.070313 34.417969 12.03125 34.9375 C 10.996094 35.140625 9.859375 35.21875 8.96875 35.21875 C 8.609375 35.21875 8.28125 35.195313 7.96875 35.15625 C 7.976563 35.101563 8 35.058594 8 35 C 8 34.449219 7.550781 34 7 34 C 6.585938 34 6.246094 34.265625 6.09375 34.625 C 6.0625 34.609375 6.03125 34.578125 6 34.5625 C 5.320313 34.171875 4.957031 33.6875 4.8125 33.0625 C 4.78125 32.929688 4.761719 32.792969 4.75 32.65625 C 4.902344 32.480469 5 32.25 5 32 C 5 31.8125 4.933594 31.648438 4.84375 31.5 C 5.03125 30.765625 5.453125 30.019531 6.0625 29.3125 C 6.199219 29.707031 6.5625 30 7 30 C 7.550781 30 8 29.550781 8 29 C 8 28.585938 7.734375 28.246094 7.375 28.09375 C 8.019531 27.601563 8.738281 27.1875 9.5 26.84375 C 9.648438 26.933594 9.8125 27 10 27 C 10.4375 27 10.800781 26.707031 10.9375 26.3125 C 10.992188 26.296875 11.039063 26.265625 11.09375 26.25 C 12.769531 25.804688 14.121094 25.542969 15.25 25.34375 C 15.097656 25.519531 15 25.75 15 26 C 15 26.550781 15.449219 27 16 27 C 16.550781 27 17 26.550781 17 26 C 17 25.621094 16.78125 25.292969 16.46875 25.125 C 16.785156 25.078125 17.097656 25.058594 17.3125 25.03125 Z M 13 28 C 12.449219 28 12 28.449219 12 29 C 12 29.550781 12.449219 30 13 30 C 13.550781 30 14 29.550781 14 29 C 14 28.449219 13.550781 28 13 28 Z M 28.75 30.8125 C 29.207031 31.207031 31.324219 33.023438 33.625 35.03125 C 33.652344 35.074219 33.683594 35.117188 33.71875 35.15625 C 34.359375 36.003906 34.90625 38.238281 34.90625 41.46875 C 34.90625 42.882813 34.414063 43.617188 33.84375 44.125 C 33.273438 44.632813 32.523438 44.851563 32.21875 44.875 C 31.621094 44.921875 30.117188 44.328125 28.875 43.1875 C 27.632813 42.046875 26.640625 40.460938 26.4375 38.90625 C 25.863281 34.46875 25.632813 32.519531 25.59375 32.1875 C 26.773438 31.992188 27.839844 31.511719 28.75 30.8125 Z M 20.25 30.90625 C 21.203125 31.597656 22.339844 32.066406 23.5625 32.21875 C 23.597656 32.492188 23.894531 34.789063 24.25 37.59375 C 24.222656 37.695313 24.210938 37.800781 24.21875 37.90625 C 24.386719 39.523438 24.382813 42.199219 23.53125 44.3125 C 22.679688 46.425781 21.222656 48 17.84375 48 C 15.339844 48 14.0625 46.984375 13.25 45.8125 C 12.4375 44.640625 12.1875 43.203125 12.1875 42.75 C 12.1875 41.203125 13.289063 38.703125 14.53125 37.3125 C 15.882813 35.804688 19.804688 31.410156 20.25 30.90625 Z M 10 31 C 9.449219 31 9 31.449219 9 32 C 9 32.550781 9.449219 33 10 33 C 10.550781 33 11 32.550781 11 32 C 11 31.449219 10.550781 31 10 31 Z"/></svg>