<svg version="1.1" xmlns="http://www.w3.org/2000/svg" xmlns:xlink="http://www.w3.org/1999/xlink" width="1199.54052734375" height="731"><defs/><g><g transform="translate(-174,-230) scale(1,1)"><path fill="#C0C0C0" stroke="none" d="M 388.641845703125 906.5 C 388.641845703125 900.1487248 393.790570503125 895 400.141845703125 895 C 406.493120903125 895 411.641845703125 900.1487248 411.641845703125 906.5 C 411.641845703125 912.8512752 406.493120903125 918 400.141845703125 918 C 393.790570503125 918 388.641845703125 912.8512752 388.641845703125 906.5 Z" opacity="0.2"/></g><g transform="translate(-174,-230) scale(1,1)"><path fill="#ffffff" stroke="none" d="M 381.641845703125 899.5 C 381.641845703125 893.1487248 386.790570503125 888 393.141845703125 888 C 399.493120903125 888 404.641845703125 893.1487248 404.641845703125 899.5 C 404.641845703125 905.8512752 399.493120903125 911 393.141845703125 911 C 386.790570503125 911 381.641845703125 905.8512752 381.641845703125 899.5 Z"/></g><g transform="translate(-174,-230) scale(1,1)"><path fill="none" stroke="#000000" d="M 381.641845703125 899.5 C 381.641845703125 893.1487248 386.790570503125 888 393.141845703125 888 C 399.493120903125 888 404.641845703125 893.1487248 404.641845703125 899.5 C 404.641845703125 905.8512752 399.493120903125 911 393.141845703125 911 C 386.790570503125 911 381.641845703125 905.8512752 381.641845703125 899.5 Z" stroke-miterlimit="10"/></g><g transform="translate(-174,-230) scale(1,1)"><g><path fill="none" stroke="none"/><text fill="#000000" stroke="none" font-family="Arial" font-size="13px" font-style="normal" font-weight="bold" text-decoration="none" x="375.076416015625" y="930.5">Group</text></g></g><g transform="translate(-174,-230) scale(1,1)"><g><path fill="none" stroke="none"/><text fill="#000000" stroke="none" font-family="Arial" font-size="13px" font-style="normal" font-weight="normal" text-decoration="none" x="359.918212890625" y="945.5">(from main)</text></g></g><g transform="translate(-174,-230) scale(1,1)"><path fill="#C0C0C0" stroke="none" d="M 820.641845703125 906.5 C 820.641845703125 900.1487248 825.790570503125 895 832.141845703125 895 C 838.493120903125 895 843.641845703125 900.1487248 843.641845703125 906.5 C 843.641845703125 912.8512752 838.493120903125 918 832.141845703125 918 C 825.790570503125 918 820.641845703125 912.8512752 820.641845703125 906.5 Z" opacity="0.2"/></g><g transform="translate(-174,-230) scale(1,1)"><path fill="#ffffff" stroke="none" d="M 813.641845703125 899.5 C 813.641845703125 893.1487248 818.790570503125 888 825.141845703125 888 C 831.493120903125 888 836.641845703125 893.1487248 836.641845703125 899.5 C 836.641845703125 905.8512752 831.493120903125 911 825.141845703125 911 C 818.790570503125 911 813.641845703125 905.8512752 813.641845703125 899.5 Z"/></g><g transform="translate(-174,-230) scale(1,1)"><path fill="none" stroke="#000000" d="M 813.641845703125 899.5 C 813.641845703125 893.1487248 818.790570503125 888 825.141845703125 888 C 831.493120903125 888 836.641845703125 893.1487248 836.641845703125 899.5 C 836.641845703125 905.8512752 831.493120903125 911 825.141845703125 911 C 818.790570503125 911 813.641845703125 905.8512752 813.641845703125 899.5 Z" stroke-miterlimit="10"/></g><g transform="translate(-174,-230) scale(1,1)"><g><path fill="none" stroke="none"/><text fill="#000000" stroke="none" font-family="Arial" font-size="13px" font-style="normal" font-weight="bold" text-decoration="none" x="801.30322265625" y="930.5">Network</text></g></g><g transform="translate(-174,-230) scale(1,1)"><g><path fill="none" stroke="none"/><text fill="#000000" stroke="none" font-family="Arial" font-size="13px" font-style="normal" font-weight="normal" text-decoration="none" x="791.918212890625" y="945.5">(from main)</text></g></g><g transform="translate(-174,-230) scale(1,1)"><path fill="#C0C0C0" stroke="none" d="M 1212.641845703125 898.5 C 1212.641845703125 892.1487248 1217.790570503125 887 1224.141845703125 887 C 1230.493120903125 887 1235.641845703125 892.1487248 1235.641845703125 898.5 C 1235.641845703125 904.8512752 1230.493120903125 910 1224.141845703125 910 C 1217.790570503125 910 1212.641845703125 904.8512752 1212.641845703125 898.5 Z" opacity="0.2"/></g><g transform="translate(-174,-230) scale(1,1)"><path fill="#ffffff" stroke="none" d="M 1205.641845703125 891.5 C 1205.641845703125 885.1487248 1210.790570503125 880 1217.141845703125 880 C 1223.493120903125 880 1228.641845703125 885.1487248 1228.641845703125 891.5 C 1228.641845703125 897.8512752 1223.493120903125 903 1217.141845703125 903 C 1210.790570503125 903 1205.641845703125 897.8512752 1205.641845703125 891.5 Z"/></g><g transform="translate(-174,-230) scale(1,1)"><path fill="none" stroke="#000000" d="M 1205.641845703125 891.5 C 1205.641845703125 885.1487248 1210.790570503125 880 1217.141845703125 880 C 1223.493120903125 880 1228.641845703125 885.1487248 1228.641845703125 891.5 C 1228.641845703125 897.8512752 1223.493120903125 903 1217.141845703125 903 C 1210.790570503125 903 1205.641845703125 897.8512752 1205.641845703125 891.5 Z" stroke-miterlimit="10"/></g><g transform="translate(-174,-230) scale(1,1)"><g><path fill="none" stroke="none"/><text fill="#000000" stroke="none" font-family="Arial" font-size="13px" font-style="normal" font-weight="bold" text-decoration="none" x="1196.546875" y="922.5">Person</text></g></g><g transform="translate(-174,-230) scale(1,1)"><g><path fill="none" stroke="none"/><text fill="#000000" stroke="none" font-family="Arial" font-size="13px" font-style="normal" font-weight="normal" text-decoration="none" x="1183.918212890625" y="937.5">(from main)</text></g></g><g transform="translate(-174,-230) scale(1,1)"><rect fill="#C0C0C0" stroke="none" x="711" y="431" width="241.45751953125" height="295" opacity="0.2"/></g><g transform="translate(-174,-230) scale(1,1)"><rect fill="#ffffff" stroke="none" x="704" y="424" width="241.45751953125" height="295"/></g><g transform="translate(-174,-230) scale(1,1)"><path fill="none" stroke="#000000" d="M 704 424 L 945.45751953125 424 L 945.45751953125 719 L 704 719 L 704 424 Z Z" stroke-miterlimit="10"/></g><g transform="translate(-174,-230) scale(1,1)"><path fill="none" stroke="#000000" d="M 704 464 L 945.45751953125 464" stroke-miterlimit="10"/></g><g transform="translate(-174,-230) scale(1,1)"><path fill="none" stroke="#000000" d="M 704 547 L 945.45751953125 547" stroke-miterlimit="10"/></g><g transform="translate(-174,-230) scale(1,1)"><g><path fill="none" stroke="none"/><text fill="#000000" stroke="none" font-family="Arial" font-size="13px" font-style="normal" font-weight="bold" text-decoration="none" x="797.998779296875" y="443.5">MyGroup</text></g></g><g transform="translate(-174,-230) scale(1,1)"><g><path fill="none" stroke="none"/><text fill="#000000" stroke="none" font-family="Arial" font-size="13px" font-style="normal" font-weight="normal" text-decoration="none" x="767.66015625" y="458.5">(from JavaReverse)</text></g></g><g transform="translate(-174,-230) scale(1,1)"><g><path fill="none" stroke="none"/><text fill="#000000" stroke="none" font-family="Arial" font-size="13px" font-style="normal" font-weight="normal" text-decoration="none" x="709" y="481.5">-id: int {readOnly}</text></g></g><g transform="translate(-174,-230) scale(1,1)"><g><path fill="none" stroke="none"/><text fill="#000000" stroke="none" font-family="Arial" font-size="13px" font-style="normal" font-weight="normal" text-decoration="none" x="709" y="496.5">-people: HashMap {readOnly}</text></g></g><g transform="translate(-174,-230) scale(1,1)"><g><path fill="none" stroke="none"/><text fill="#000000" stroke="none" font-family="Arial" font-size="13px" font-style="normal" font-weight="normal" text-decoration="none" x="709" y="511.5">-ageSum: int</text></g></g><g transform="translate(-174,-230) scale(1,1)"><g><path fill="none" stroke="none"/><text fill="#000000" stroke="none" font-family="Arial" font-size="13px" font-style="normal" font-weight="normal" text-decoration="none" x="709" y="526.5">-agePowSum: int</text></g></g><g transform="translate(-174,-230) scale(1,1)"><g><path fill="none" stroke="none"/><text fill="#000000" stroke="none" font-family="Arial" font-size="13px" font-style="normal" font-weight="normal" text-decoration="none" x="709" y="541.5">-valueSum: int</text></g></g><g transform="translate(-174,-230) scale(1,1)"><g><path fill="none" stroke="none"/><text fill="#000000" stroke="none" font-family="Arial" font-size="13px" font-style="normal" font-weight="normal" text-decoration="none" x="709" y="564.5">«constructor»+MyGroup(id: int)</text></g></g><g transform="translate(-174,-230) scale(1,1)"><g><path fill="none" stroke="none"/><text fill="#000000" stroke="none" font-family="Arial" font-size="13px" font-style="normal" font-weight="normal" text-decoration="none" x="709" y="579.5">+setValueSum(valueSum: int): void</text></g></g><g transform="translate(-174,-230) scale(1,1)"><g><path fill="none" stroke="none"/><text fill="#000000" stroke="none" font-family="Arial" font-size="13px" font-style="normal" font-weight="normal" text-decoration="none" x="709" y="594.5">+getId(): int</text></g></g><g transform="translate(-174,-230) scale(1,1)"><g><path fill="none" stroke="none"/><text fill="#000000" stroke="none" font-family="Arial" font-size="13px" font-style="normal" font-weight="normal" text-decoration="none" x="709" y="609.5">+equals(obj: Object): boolean</text></g></g><g transform="translate(-174,-230) scale(1,1)"><g><path fill="none" stroke="none"/><text fill="#000000" stroke="none" font-family="Arial" font-size="13px" font-style="normal" font-weight="normal" text-decoration="none" x="709" y="624.5">+hasPerson(person: Person): boolean</text></g></g><g transform="translate(-174,-230) scale(1,1)"><g><path fill="none" stroke="none"/><text fill="#000000" stroke="none" font-family="Arial" font-size="13px" font-style="normal" font-weight="normal" text-decoration="none" x="709" y="639.5">+addPerson(person: Person): void</text></g></g><g transform="translate(-174,-230) scale(1,1)"><g><path fill="none" stroke="none"/><text fill="#000000" stroke="none" font-family="Arial" font-size="13px" font-style="normal" font-weight="normal" text-decoration="none" x="709" y="654.5">+getValueSum(): int</text></g></g><g transform="translate(-174,-230) scale(1,1)"><g><path fill="none" stroke="none"/><text fill="#000000" stroke="none" font-family="Arial" font-size="13px" font-style="normal" font-weight="normal" text-decoration="none" x="709" y="669.5">+getAgeMean(): int</text></g></g><g transform="translate(-174,-230) scale(1,1)"><g><path fill="none" stroke="none"/><text fill="#000000" stroke="none" font-family="Arial" font-size="13px" font-style="normal" font-weight="normal" text-decoration="none" x="709" y="684.5">+getAgeVar(): int</text></g></g><g transform="translate(-174,-230) scale(1,1)"><g><path fill="none" stroke="none"/><text fill="#000000" stroke="none" font-family="Arial" font-size="13px" font-style="normal" font-weight="normal" text-decoration="none" x="709" y="699.5">+delPerson(person: Person): void</text></g></g><g transform="translate(-174,-230) scale(1,1)"><g><path fill="none" stroke="none"/><text fill="#000000" stroke="none" font-family="Arial" font-size="13px" font-style="normal" font-weight="normal" text-decoration="none" x="709" y="714.5">+getSize(): int</text></g></g><g transform="translate(-174,-230) scale(1,1)"><rect fill="#C0C0C0" stroke="none" x="1079" y="407" width="291.54052734375" height="340" opacity="0.2"/></g><g transform="translate(-174,-230) scale(1,1)"><rect fill="#ffffff" stroke="none" x="1072" y="400" width="291.54052734375" height="340"/></g><g transform="translate(-174,-230) scale(1,1)"><path fill="none" stroke="#000000" d="M 1072 400 L 1363.54052734375 400 L 1363.54052734375 740 L 1072 740 L 1072 400 Z Z" stroke-miterlimit="10"/></g><g transform="translate(-174,-230) scale(1,1)"><path fill="none" stroke="#000000" d="M 1072 440 L 1363.54052734375 440" stroke-miterlimit="10"/></g><g transform="translate(-174,-230) scale(1,1)"><path fill="none" stroke="#000000" d="M 1072 508 L 1363.54052734375 508" stroke-miterlimit="10"/></g><g transform="translate(-174,-230) scale(1,1)"><g><path fill="none" stroke="none"/><text fill="#000000" stroke="none" font-family="Arial" font-size="13px" font-style="normal" font-weight="bold" text-decoration="none" x="1185.26708984375" y="419.5">MyNetwork</text></g></g><g transform="translate(-174,-230) scale(1,1)"><g><path fill="none" stroke="none"/><text fill="#000000" stroke="none" font-family="Arial" font-size="13px" font-style="normal" font-weight="normal" text-decoration="none" x="1160.70166015625" y="434.5">(from JavaReverse)</text></g></g><g transform="translate(-174,-230) scale(1,1)"><g><path fill="none" stroke="none"/><text fill="#000000" stroke="none" font-family="Arial" font-size="13px" font-style="normal" font-weight="normal" text-decoration="none" x="1077" y="457.5">-people: HashMap {readOnly}</text></g></g><g transform="translate(-174,-230) scale(1,1)"><g><path fill="none" stroke="none"/><text fill="#000000" stroke="none" font-family="Arial" font-size="13px" font-style="normal" font-weight="normal" text-decoration="none" x="1077" y="472.5">-groups: HashMap {readOnly}</text></g></g><g transform="translate(-174,-230) scale(1,1)"><g><path fill="none" stroke="none"/><text fill="#000000" stroke="none" font-family="Arial" font-size="13px" font-style="normal" font-weight="normal" text-decoration="none" x="1077" y="487.5">-pre: HashMap {readOnly}</text></g></g><g transform="translate(-174,-230) scale(1,1)"><g><path fill="none" stroke="none"/><text fill="#000000" stroke="none" font-family="Arial" font-size="13px" font-style="normal" font-weight="normal" text-decoration="none" x="1077" y="502.5">-blockSum: int</text></g></g><g transform="translate(-174,-230) scale(1,1)"><g><path fill="none" stroke="none"/><text fill="#000000" stroke="none" font-family="Arial" font-size="13px" font-style="normal" font-weight="normal" text-decoration="none" x="1077" y="525.5">«constructor»+MyNetwork()</text></g></g><g transform="translate(-174,-230) scale(1,1)"><g><path fill="none" stroke="none"/><text fill="#000000" stroke="none" font-family="Arial" font-size="13px" font-style="normal" font-weight="normal" text-decoration="none" x="1077" y="540.5">-find(id: int): int</text></g></g><g transform="translate(-174,-230) scale(1,1)"><g><path fill="none" stroke="none"/><text fill="#000000" stroke="none" font-family="Arial" font-size="13px" font-style="normal" font-weight="normal" text-decoration="none" x="1077" y="555.5">-merge(id1: int, id2: int): void</text></g></g><g transform="translate(-174,-230) scale(1,1)"><g><path fill="none" stroke="none"/><text fill="#000000" stroke="none" font-family="Arial" font-size="13px" font-style="normal" font-weight="normal" text-decoration="none" x="1077" y="570.5">+contains(id: int): boolean</text></g></g><g transform="translate(-174,-230) scale(1,1)"><g><path fill="none" stroke="none"/><text fill="#000000" stroke="none" font-family="Arial" font-size="13px" font-style="normal" font-weight="normal" text-decoration="none" x="1077" y="585.5">+getPerson(id: int): Person</text></g></g><g transform="translate(-174,-230) scale(1,1)"><g><path fill="none" stroke="none"/><text fill="#000000" stroke="none" font-family="Arial" font-size="13px" font-style="normal" font-weight="normal" text-decoration="none" x="1077" y="600.5">+addPerson(person: Person): void</text></g></g><g transform="translate(-174,-230) scale(1,1)"><g><path fill="none" stroke="none"/><text fill="#000000" stroke="none" font-family="Arial" font-size="13px" font-style="normal" font-weight="normal" text-decoration="none" x="1077" y="615.5">+addRelation(id1: int, id2: int, value: int): void</text></g></g><g transform="translate(-174,-230) scale(1,1)"><g><path fill="none" stroke="none"/><text fill="#000000" stroke="none" font-family="Arial" font-size="13px" font-style="normal" font-weight="normal" text-decoration="none" x="1077" y="630.5">+queryValue(id1: int, id2: int): int</text></g></g><g transform="translate(-174,-230) scale(1,1)"><g><path fill="none" stroke="none"/><text fill="#000000" stroke="none" font-family="Arial" font-size="13px" font-style="normal" font-weight="normal" text-decoration="none" x="1077" y="645.5">+queryPeopleSum(): int</text></g></g><g transform="translate(-174,-230) scale(1,1)"><g><path fill="none" stroke="none"/><text fill="#000000" stroke="none" font-family="Arial" font-size="13px" font-style="normal" font-weight="normal" text-decoration="none" x="1077" y="660.5">+isCircle(id1: int, id2: int): boolean</text></g></g><g transform="translate(-174,-230) scale(1,1)"><g><path fill="none" stroke="none"/><text fill="#000000" stroke="none" font-family="Arial" font-size="13px" font-style="normal" font-weight="normal" text-decoration="none" x="1077" y="675.5">+queryBlockSum(): int</text></g></g><g transform="translate(-174,-230) scale(1,1)"><g><path fill="none" stroke="none"/><text fill="#000000" stroke="none" font-family="Arial" font-size="13px" font-style="normal" font-weight="normal" text-decoration="none" x="1077" y="690.5">+addGroup(group: Group): void</text></g></g><g transform="translate(-174,-230) scale(1,1)"><g><path fill="none" stroke="none"/><text fill="#000000" stroke="none" font-family="Arial" font-size="13px" font-style="normal" font-weight="normal" text-decoration="none" x="1077" y="705.5">+getGroup(id: int): Group</text></g></g><g transform="translate(-174,-230) scale(1,1)"><g><path fill="none" stroke="none"/><text fill="#000000" stroke="none" font-family="Arial" font-size="13px" font-style="normal" font-weight="normal" text-decoration="none" x="1077" y="720.5">+addToGroup(id1: int, id2: int): void</text></g></g><g transform="translate(-174,-230) scale(1,1)"><g><path fill="none" stroke="none"/><text fill="#000000" stroke="none" font-family="Arial" font-size="13px" font-style="normal" font-weight="normal" text-decoration="none" x="1077" y="735.5">+delFromGroup(id1: int, id2: int): void</text></g></g><g transform="translate(-174,-230) scale(1,1)"><rect fill="#C0C0C0" stroke="none" x="191" y="439" width="421.927734375" height="280" opacity="0.2"/></g><g transform="translate(-174,-230) scale(1,1)"><rect fill="#ffffff" stroke="none" x="184" y="432" width="421.927734375" height="280"/></g><g transform="translate(-174,-230) scale(1,1)"><path fill="none" stroke="#000000" d="M 184 432 L 605.927734375 432 L 605.927734375 712 L 184 712 L 184 432 Z Z" stroke-miterlimit="10"/></g><g transform="translate(-174,-230) scale(1,1)"><path fill="none" stroke="#000000" d="M 184 472 L 605.927734375 472" stroke-miterlimit="10"/></g><g transform="translate(-174,-230) scale(1,1)"><path fill="none" stroke="#000000" d="M 184 555 L 605.927734375 555" stroke-miterlimit="10"/></g><g transform="translate(-174,-230) scale(1,1)"><g><path fill="none" stroke="none"/><text fill="#000000" stroke="none" font-family="Arial" font-size="13px" font-style="normal" font-weight="bold" text-decoration="none" x="365.704345703125" y="451.5">MyPerson</text></g></g><g transform="translate(-174,-230) scale(1,1)"><g><path fill="none" stroke="none"/><text fill="#000000" stroke="none" font-family="Arial" font-size="13px" font-style="normal" font-weight="normal" text-decoration="none" x="337.895263671875" y="466.5">(from JavaReverse)</text></g></g><g transform="translate(-174,-230) scale(1,1)"><g><path fill="none" stroke="none"/><text fill="#000000" stroke="none" font-family="Arial" font-size="13px" font-style="normal" font-weight="normal" text-decoration="none" x="189" y="489.5">-id: int {readOnly}</text></g></g><g transform="translate(-174,-230) scale(1,1)"><g><path fill="none" stroke="none"/><text fill="#000000" stroke="none" font-family="Arial" font-size="13px" font-style="normal" font-weight="normal" text-decoration="none" x="189" y="504.5">-name: String {readOnly}</text></g></g><g transform="translate(-174,-230) scale(1,1)"><g><path fill="none" stroke="none"/><text fill="#000000" stroke="none" font-family="Arial" font-size="13px" font-style="normal" font-weight="normal" text-decoration="none" x="189" y="519.5">-age: int {readOnly}</text></g></g><g transform="translate(-174,-230) scale(1,1)"><g><path fill="none" stroke="none"/><text fill="#000000" stroke="none" font-family="Arial" font-size="13px" font-style="normal" font-weight="normal" text-decoration="none" x="189" y="534.5">-acquaintance: HashMap {readOnly}</text></g></g><g transform="translate(-174,-230) scale(1,1)"><g><path fill="none" stroke="none"/><text fill="#000000" stroke="none" font-family="Arial" font-size="13px" font-style="normal" font-weight="normal" text-decoration="none" x="189" y="549.5">-value: HashMap {readOnly}</text></g></g><g transform="translate(-174,-230) scale(1,1)"><g><path fill="none" stroke="none"/><text fill="#000000" stroke="none" font-family="Arial" font-size="13px" font-style="normal" font-weight="normal" text-decoration="none" x="189" y="572.5">«constructor»+MyPerson(id: int, name: String, age: int)</text></g></g><g transform="translate(-174,-230) scale(1,1)"><g><path fill="none" stroke="none"/><text fill="#000000" stroke="none" font-family="Arial" font-size="13px" font-style="normal" font-weight="normal" text-decoration="none" x="189" y="587.5">+addRelation(personId: int, person: Person, personValue: int): void</text></g></g><g transform="translate(-174,-230) scale(1,1)"><g><path fill="none" stroke="none"/><text fill="#000000" stroke="none" font-family="Arial" font-size="13px" font-style="normal" font-weight="normal" text-decoration="none" x="189" y="602.5">+delRelation(personId: int, person: Person): void</text></g></g><g transform="translate(-174,-230) scale(1,1)"><g><path fill="none" stroke="none"/><text fill="#000000" stroke="none" font-family="Arial" font-size="13px" font-style="normal" font-weight="normal" text-decoration="none" x="189" y="617.5">+getId(): int</text></g></g><g transform="translate(-174,-230) scale(1,1)"><g><path fill="none" stroke="none"/><text fill="#000000" stroke="none" font-family="Arial" font-size="13px" font-style="normal" font-weight="normal" text-decoration="none" x="189" y="632.5">+getName(): String</text></g></g><g transform="translate(-174,-230) scale(1,1)"><g><path fill="none" stroke="none"/><text fill="#000000" stroke="none" font-family="Arial" font-size="13px" font-style="normal" font-weight="normal" text-decoration="none" x="189" y="647.5">+getAge(): int</text></g></g><g transform="translate(-174,-230) scale(1,1)"><g><path fill="none" stroke="none"/><text fill="#000000" stroke="none" font-family="Arial" font-size="13px" font-style="normal" font-weight="normal" text-decoration="none" x="189" y="662.5">+equals(obj: Object): boolean</text></g></g><g transform="translate(-174,-230) scale(1,1)"><g><path fill="none" stroke="none"/><text fill="#000000" stroke="none" font-family="Arial" font-size="13px" font-style="normal" font-weight="normal" text-decoration="none" x="189" y="677.5">+isLinked(person: Person): boolean</text></g></g><g transform="translate(-174,-230) scale(1,1)"><g><path fill="none" stroke="none"/><text fill="#000000" stroke="none" font-family="Arial" font-size="13px" font-style="normal" font-weight="normal" text-decoration="none" x="189" y="692.5">+queryValue(person: Person): int</text></g></g><g transform="translate(-174,-230) scale(1,1)"><g><path fill="none" stroke="none"/><text fill="#000000" stroke="none" font-family="Arial" font-size="13px" font-style="normal" font-weight="normal" text-decoration="none" x="189" y="707.5">+compareTo(p2: Person): int</text></g></g><g transform="translate(-174,-230) scale(1,1)"><path fill="none" stroke="#000000" d="M 607 572 L 703 571" stroke-miterlimit="10"/></g><g transform="translate(-174,-230) scale(1,1)"><path fill="#FFFFFF" stroke="none" d="M 692.8817232224253 575.3151448472088 L 703 571 L 692.794029693391 566.8965660599181 L 681.0011934792642 571.229154234591"/></g><g transform="translate(-174,-230) scale(1,1)"><path fill="none" stroke="#000000" d="M 692.8817232224253 575.3151448472088 L 703 571 L 692.794029693391 566.8965660599181 L 681.0011934792642 571.229154234591 L 692.8817232224253 575.3151448472088" stroke-miterlimit="10"/></g><g transform="translate(-174,-230) scale(1,1)"><path fill="none" stroke="#000000" d="M 946 571 L 1071 570" stroke-miterlimit="10"/></g><g transform="translate(-174,-230) scale(1,1)"><path fill="#FFFFFF" stroke="none" d="M 1060.8713253968256 574.2906818552543 L 1071 570 L 1060.803975267899 565.8719157394279 L 1049.0007039662098 570.1759943682704"/></g><g transform="translate(-174,-230) scale(1,1)"><path fill="none" stroke="#000000" d="M 1060.8713253968256 574.2906818552543 L 1071 570 L 1060.803975267899 565.8719157394279 L 1049.0007039662098 570.1759943682704 L 1060.8713253968256 574.2906818552543" stroke-miterlimit="10"/></g><g transform="translate(-174,-230) scale(1,1)"><path fill="none" stroke="#000000" d="M 393 431 L 392 240 L 1216 240 L 1216 399" stroke-miterlimit="10"/></g><g transform="translate(-174,-230) scale(1,1)"><path fill="#FFFFFF" stroke="none" d="M 1211.7904822439841 388.83732514237585 L 1216 399 L 1220.2095177560159 388.83732514237585 L 1216 377"/></g><g transform="translate(-174,-230) scale(1,1)"><path fill="none" stroke="#000000" d="M 1211.7904822439841 388.83732514237585 L 1216 399 L 1220.2095177560159 388.83732514237585 L 1216 377 L 1211.7904822439841 388.83732514237585" stroke-miterlimit="10"/></g><g transform="translate(-174,-230) scale(1,1)"><path fill="none" stroke="#000000" d="M 394 713 L 393 887" stroke-miterlimit="10" stroke-dasharray="3"/></g><g transform="translate(-174,-230) scale(1,1)"><path fill="#FFFFFF" stroke="none" d="M 384.6979139482403 866.626601481609 L 393 887 L 401.5357069029767 866.7233704066363"/></g><g transform="translate(-174,-230) scale(1,1)"><path fill="none" stroke="#000000" d="M 384.6979139482403 866.626601481609 L 393 887 L 401.5357069029767 866.7233704066363 L 384.6979139482403 866.626601481609" stroke-miterlimit="10"/></g><g transform="translate(-174,-230) scale(1,1)"><path fill="none" stroke="#000000" d="M 824 720 L 825 887" stroke-miterlimit="10" stroke-dasharray="3"/></g><g transform="translate(-174,-230) scale(1,1)"><path fill="#FFFFFF" stroke="none" d="M 816.4594089232226 866.7254271547026 L 825 887 L 833.2971780788398 866.624602189699"/></g><g transform="translate(-174,-230) scale(1,1)"><path fill="none" stroke="#000000" d="M 816.4594089232226 866.7254271547026 L 825 887 L 833.2971780788398 866.624602189699 L 816.4594089232226 866.7254271547026" stroke-miterlimit="10"/></g><g transform="translate(-174,-230) scale(1,1)"><path fill="none" stroke="#000000" d="M 1217 741 L 1217 879" stroke-miterlimit="10" stroke-dasharray="3"/></g><g transform="translate(-174,-230) scale(1,1)"><path fill="#FFFFFF" stroke="none" d="M 1208.580964487968 858.6746502847517 L 1217 879 L 1225.419035512032 858.6746502847517"/></g><g transform="translate(-174,-230) scale(1,1)"><path fill="none" stroke="#000000" d="M 1208.580964487968 858.6746502847517 L 1217 879 L 1225.419035512032 858.6746502847517 L 1208.580964487968 858.6746502847517" stroke-miterlimit="10"/></g></g></svg>