<svg version="1.1" xmlns="http://www.w3.org/2000/svg" xmlns:xlink="http://www.w3.org/1999/xlink" width="1705.455078125" height="1015"><defs/><g><g transform="translate(-542,-622) scale(1,1)"><rect fill="#C0C0C0" stroke="none" x="2007" y="831" width="166.87890625" height="160" opacity="0.2"/></g><g transform="translate(-542,-622) scale(1,1)"><rect fill="#ffffff" stroke="none" x="2000" y="824" width="166.87890625" height="160"/></g><g transform="translate(-542,-622) scale(1,1)"><path fill="none" stroke="#000000" d="M 2000 824 L 2166.87890625 824 L 2166.87890625 984 L 2000 984 L 2000 824 Z Z" stroke-miterlimit="10"/></g><g transform="translate(-542,-622) scale(1,1)"><path fill="none" stroke="#000000" d="M 2000 864 L 2166.87890625 864" stroke-miterlimit="10"/></g><g transform="translate(-542,-622) scale(1,1)"><path fill="none" stroke="#000000" d="M 2000 902 L 2166.87890625 902" stroke-miterlimit="10"/></g><g transform="translate(-542,-622) scale(1,1)"><g><path fill="none" stroke="none"/><text fill="#000000" stroke="none" font-family="Arial" font-size="13px" font-style="normal" font-weight="bold" text-decoration="none" x="2052.370849609375" y="843.5">DisjointSet</text></g></g><g transform="translate(-542,-622) scale(1,1)"><g><path fill="none" stroke="none"/><text fill="#000000" stroke="none" font-family="Arial" font-size="13px" font-style="normal" font-weight="normal" text-decoration="none" x="2026.370849609375" y="858.5">(from JavaReverse)</text></g></g><g transform="translate(-542,-622) scale(1,1)"><g><path fill="none" stroke="none"/><text fill="#000000" stroke="none" font-family="Arial" font-size="13px" font-style="normal" font-weight="normal" text-decoration="none" x="2005" y="881.5">-pre: HashMap</text></g></g><g transform="translate(-542,-622) scale(1,1)"><g><path fill="none" stroke="none"/><text fill="#000000" stroke="none" font-family="Arial" font-size="13px" font-style="normal" font-weight="normal" text-decoration="none" x="2005" y="896.5">-rank: HashMap</text></g></g><g transform="translate(-542,-622) scale(1,1)"><g><path fill="none" stroke="none"/><text fill="#000000" stroke="none" font-family="Arial" font-size="13px" font-style="normal" font-weight="normal" text-decoration="none" x="2005" y="919.5">«constructor»+DisjointSet()</text></g></g><g transform="translate(-542,-622) scale(1,1)"><g><path fill="none" stroke="none"/><text fill="#000000" stroke="none" font-family="Arial" font-size="13px" font-style="normal" font-weight="normal" text-decoration="none" x="2005" y="934.5">+getSize(): int</text></g></g><g transform="translate(-542,-622) scale(1,1)"><g><path fill="none" stroke="none"/><text fill="#000000" stroke="none" font-family="Arial" font-size="13px" font-style="normal" font-weight="normal" text-decoration="none" x="2005" y="949.5">+find(id: int): int</text></g></g><g transform="translate(-542,-622) scale(1,1)"><g><path fill="none" stroke="none"/><text fill="#000000" stroke="none" font-family="Arial" font-size="13px" font-style="normal" font-weight="normal" text-decoration="none" x="2005" y="964.5">+merge(id1: int, id2: int): int</text></g></g><g transform="translate(-542,-622) scale(1,1)"><g><path fill="none" stroke="none"/><text fill="#000000" stroke="none" font-family="Arial" font-size="13px" font-style="normal" font-weight="normal" text-decoration="none" x="2005" y="979.5">+add(id: int): void</text></g></g><g transform="translate(-542,-622) scale(1,1)"><rect fill="#C0C0C0" stroke="none" x="1967" y="1103" width="277.455078125" height="175" opacity="0.2"/></g><g transform="translate(-542,-622) scale(1,1)"><rect fill="#ffffff" stroke="none" x="1960" y="1096" width="277.455078125" height="175"/></g><g transform="translate(-542,-622) scale(1,1)"><path fill="none" stroke="#000000" d="M 1960 1096 L 2237.455078125 1096 L 2237.455078125 1271 L 1960 1271 L 1960 1096 Z Z" stroke-miterlimit="10"/></g><g transform="translate(-542,-622) scale(1,1)"><path fill="none" stroke="#000000" d="M 1960 1136 L 2237.455078125 1136" stroke-miterlimit="10"/></g><g transform="translate(-542,-622) scale(1,1)"><path fill="none" stroke="#000000" d="M 1960 1189 L 2237.455078125 1189" stroke-miterlimit="10"/></g><g transform="translate(-542,-622) scale(1,1)"><g><path fill="none" stroke="none"/><text fill="#000000" stroke="none" font-family="Arial" font-size="13px" font-style="normal" font-weight="bold" text-decoration="none" x="2083.547119140625" y="1115.5">Edge</text></g></g><g transform="translate(-542,-622) scale(1,1)"><g><path fill="none" stroke="none"/><text fill="#000000" stroke="none" font-family="Arial" font-size="13px" font-style="normal" font-weight="normal" text-decoration="none" x="2041.658935546875" y="1130.5">(from JavaReverse)</text></g></g><g transform="translate(-542,-622) scale(1,1)"><g><path fill="none" stroke="none"/><text fill="#000000" stroke="none" font-family="Arial" font-size="13px" font-style="normal" font-weight="normal" text-decoration="none" x="1965" y="1153.5">-value: int</text></g></g><g transform="translate(-542,-622) scale(1,1)"><g><path fill="none" stroke="none"/><text fill="#000000" stroke="none" font-family="Arial" font-size="13px" font-style="normal" font-weight="normal" text-decoration="none" x="1965" y="1168.5">-id1: int</text></g></g><g transform="translate(-542,-622) scale(1,1)"><g><path fill="none" stroke="none"/><text fill="#000000" stroke="none" font-family="Arial" font-size="13px" font-style="normal" font-weight="normal" text-decoration="none" x="1965" y="1183.5">-id2: int</text></g></g><g transform="translate(-542,-622) scale(1,1)"><g><path fill="none" stroke="none"/><text fill="#000000" stroke="none" font-family="Arial" font-size="13px" font-style="normal" font-weight="normal" text-decoration="none" x="1965" y="1206.5">«constructor»+Edge(value: int, id1: int, id2: int)</text></g></g><g transform="translate(-542,-622) scale(1,1)"><g><path fill="none" stroke="none"/><text fill="#000000" stroke="none" font-family="Arial" font-size="13px" font-style="normal" font-weight="normal" text-decoration="none" x="1965" y="1221.5">+compareTo(o: Object): int</text></g></g><g transform="translate(-542,-622) scale(1,1)"><g><path fill="none" stroke="none"/><text fill="#000000" stroke="none" font-family="Arial" font-size="13px" font-style="normal" font-weight="normal" text-decoration="none" x="1965" y="1236.5">+getId1(): int</text></g></g><g transform="translate(-542,-622) scale(1,1)"><g><path fill="none" stroke="none"/><text fill="#000000" stroke="none" font-family="Arial" font-size="13px" font-style="normal" font-weight="normal" text-decoration="none" x="1965" y="1251.5">+getId2(): int</text></g></g><g transform="translate(-542,-622) scale(1,1)"><g><path fill="none" stroke="none"/><text fill="#000000" stroke="none" font-family="Arial" font-size="13px" font-style="normal" font-weight="normal" text-decoration="none" x="1965" y="1266.5">+getValue(): int</text></g></g><g transform="translate(-542,-622) scale(1,1)"><rect fill="#C0C0C0" stroke="none" x="1135" y="879" width="246.62451171875" height="310" opacity="0.2"/></g><g transform="translate(-542,-622) scale(1,1)"><rect fill="#ffffff" stroke="none" x="1128" y="872" width="246.62451171875" height="310"/></g><g transform="translate(-542,-622) scale(1,1)"><path fill="none" stroke="#000000" d="M 1128 872 L 1374.62451171875 872 L 1374.62451171875 1182 L 1128 1182 L 1128 872 Z Z" stroke-miterlimit="10"/></g><g transform="translate(-542,-622) scale(1,1)"><path fill="none" stroke="#000000" d="M 1128 912 L 1374.62451171875 912" stroke-miterlimit="10"/></g><g transform="translate(-542,-622) scale(1,1)"><path fill="none" stroke="#000000" d="M 1128 995 L 1374.62451171875 995" stroke-miterlimit="10"/></g><g transform="translate(-542,-622) scale(1,1)"><g><path fill="none" stroke="none"/><text fill="#000000" stroke="none" font-family="Arial" font-size="13px" font-style="normal" font-weight="bold" text-decoration="none" x="1224.582275390625" y="891.5">MyGroup</text></g></g><g transform="translate(-542,-622) scale(1,1)"><g><path fill="none" stroke="none"/><text fill="#000000" stroke="none" font-family="Arial" font-size="13px" font-style="normal" font-weight="normal" text-decoration="none" x="1194.24365234375" y="906.5">(from JavaReverse)</text></g></g><g transform="translate(-542,-622) scale(1,1)"><g><path fill="none" stroke="none"/><text fill="#000000" stroke="none" font-family="Arial" font-size="13px" font-style="normal" font-weight="normal" text-decoration="none" x="1133" y="929.5">-id: int {readOnly}</text></g></g><g transform="translate(-542,-622) scale(1,1)"><g><path fill="none" stroke="none"/><text fill="#000000" stroke="none" font-family="Arial" font-size="13px" font-style="normal" font-weight="normal" text-decoration="none" x="1133" y="944.5">-people: HashMap {readOnly}</text></g></g><g transform="translate(-542,-622) scale(1,1)"><g><path fill="none" stroke="none"/><text fill="#000000" stroke="none" font-family="Arial" font-size="13px" font-style="normal" font-weight="normal" text-decoration="none" x="1133" y="959.5">-ageSum: int</text></g></g><g transform="translate(-542,-622) scale(1,1)"><g><path fill="none" stroke="none"/><text fill="#000000" stroke="none" font-family="Arial" font-size="13px" font-style="normal" font-weight="normal" text-decoration="none" x="1133" y="974.5">-agePowSum: int</text></g></g><g transform="translate(-542,-622) scale(1,1)"><g><path fill="none" stroke="none"/><text fill="#000000" stroke="none" font-family="Arial" font-size="13px" font-style="normal" font-weight="normal" text-decoration="none" x="1133" y="989.5">-valueSum: int</text></g></g><g transform="translate(-542,-622) scale(1,1)"><g><path fill="none" stroke="none"/><text fill="#000000" stroke="none" font-family="Arial" font-size="13px" font-style="normal" font-weight="normal" text-decoration="none" x="1133" y="1012.5">«constructor»+MyGroup(id: int)</text></g></g><g transform="translate(-542,-622) scale(1,1)"><g><path fill="none" stroke="none"/><text fill="#000000" stroke="none" font-family="Arial" font-size="13px" font-style="normal" font-weight="normal" text-decoration="none" x="1133" y="1027.5">+setValueSum(valueSum: int): void</text></g></g><g transform="translate(-542,-622) scale(1,1)"><g><path fill="none" stroke="none"/><text fill="#000000" stroke="none" font-family="Arial" font-size="13px" font-style="normal" font-weight="normal" text-decoration="none" x="1133" y="1042.5">+allAddSocialValue(socialValue: int): void</text></g></g><g transform="translate(-542,-622) scale(1,1)"><g><path fill="none" stroke="none"/><text fill="#000000" stroke="none" font-family="Arial" font-size="13px" font-style="normal" font-weight="normal" text-decoration="none" x="1133" y="1057.5">+getId(): int</text></g></g><g transform="translate(-542,-622) scale(1,1)"><g><path fill="none" stroke="none"/><text fill="#000000" stroke="none" font-family="Arial" font-size="13px" font-style="normal" font-weight="normal" text-decoration="none" x="1133" y="1072.5">+equals(obj: Object): boolean</text></g></g><g transform="translate(-542,-622) scale(1,1)"><g><path fill="none" stroke="none"/><text fill="#000000" stroke="none" font-family="Arial" font-size="13px" font-style="normal" font-weight="normal" text-decoration="none" x="1133" y="1087.5">+hasPerson(person: Person): boolean</text></g></g><g transform="translate(-542,-622) scale(1,1)"><g><path fill="none" stroke="none"/><text fill="#000000" stroke="none" font-family="Arial" font-size="13px" font-style="normal" font-weight="normal" text-decoration="none" x="1133" y="1102.5">+addPerson(person: Person): void</text></g></g><g transform="translate(-542,-622) scale(1,1)"><g><path fill="none" stroke="none"/><text fill="#000000" stroke="none" font-family="Arial" font-size="13px" font-style="normal" font-weight="normal" text-decoration="none" x="1133" y="1117.5">+getValueSum(): int</text></g></g><g transform="translate(-542,-622) scale(1,1)"><g><path fill="none" stroke="none"/><text fill="#000000" stroke="none" font-family="Arial" font-size="13px" font-style="normal" font-weight="normal" text-decoration="none" x="1133" y="1132.5">+getAgeMean(): int</text></g></g><g transform="translate(-542,-622) scale(1,1)"><g><path fill="none" stroke="none"/><text fill="#000000" stroke="none" font-family="Arial" font-size="13px" font-style="normal" font-weight="normal" text-decoration="none" x="1133" y="1147.5">+getAgeVar(): int</text></g></g><g transform="translate(-542,-622) scale(1,1)"><g><path fill="none" stroke="none"/><text fill="#000000" stroke="none" font-family="Arial" font-size="13px" font-style="normal" font-weight="normal" text-decoration="none" x="1133" y="1162.5">+delPerson(person: Person): void</text></g></g><g transform="translate(-542,-622) scale(1,1)"><g><path fill="none" stroke="none"/><text fill="#000000" stroke="none" font-family="Arial" font-size="13px" font-style="normal" font-weight="normal" text-decoration="none" x="1133" y="1177.5">+getSize(): int</text></g></g><g transform="translate(-542,-622) scale(1,1)"><rect fill="#C0C0C0" stroke="none" x="847" y="1399" width="720.8642578125" height="235" opacity="0.2"/></g><g transform="translate(-542,-622) scale(1,1)"><rect fill="#ffffff" stroke="none" x="840" y="1392" width="720.8642578125" height="235"/></g><g transform="translate(-542,-622) scale(1,1)"><path fill="none" stroke="#000000" d="M 840 1392 L 1560.8642578125 1392 L 1560.8642578125 1627 L 840 1627 L 840 1392 Z Z" stroke-miterlimit="10"/></g><g transform="translate(-542,-622) scale(1,1)"><path fill="none" stroke="#000000" d="M 840 1432 L 1560.8642578125 1432" stroke-miterlimit="10"/></g><g transform="translate(-542,-622) scale(1,1)"><path fill="none" stroke="#000000" d="M 840 1485 L 1560.8642578125 1485" stroke-miterlimit="10"/></g><g transform="translate(-542,-622) scale(1,1)"><g><path fill="none" stroke="none"/><text fill="#000000" stroke="none" font-family="Arial" font-size="13px" font-style="normal" font-weight="bold" text-decoration="none" x="1165.39306640625" y="1411.5">MyMessage</text></g></g><g transform="translate(-542,-622) scale(1,1)"><g><path fill="none" stroke="none"/><text fill="#000000" stroke="none" font-family="Arial" font-size="13px" font-style="normal" font-weight="normal" text-decoration="none" x="1143.363525390625" y="1426.5">(from JavaReverse)</text></g></g><g transform="translate(-542,-622) scale(1,1)"><g><path fill="none" stroke="none"/><text fill="#000000" stroke="none" font-family="Arial" font-size="13px" font-style="normal" font-weight="normal" text-decoration="none" x="845" y="1449.5">-type: int</text></g></g><g transform="translate(-542,-622) scale(1,1)"><g><path fill="none" stroke="none"/><text fill="#000000" stroke="none" font-family="Arial" font-size="13px" font-style="normal" font-weight="normal" text-decoration="none" x="845" y="1464.5">-id: int</text></g></g><g transform="translate(-542,-622) scale(1,1)"><g><path fill="none" stroke="none"/><text fill="#000000" stroke="none" font-family="Arial" font-size="13px" font-style="normal" font-weight="normal" text-decoration="none" x="845" y="1479.5">-socialValue: int</text></g></g><g transform="translate(-542,-622) scale(1,1)"><g><path fill="none" stroke="none"/><text fill="#000000" stroke="none" font-family="Arial" font-size="13px" font-style="normal" font-weight="normal" text-decoration="none" x="845" y="1502.5">«constructor»+MyMessage(messageId: int, messageSocialValue: int, messagePerson1: Person, messagePerson2: Person)</text></g></g><g transform="translate(-542,-622) scale(1,1)"><g><path fill="none" stroke="none"/><text fill="#000000" stroke="none" font-family="Arial" font-size="13px" font-style="normal" font-weight="normal" text-decoration="none" x="845" y="1517.5">«constructor»+MyMessage(messageId: int, messageSocialValue: int, messagePerson1: Person, messageGroup: Group)</text></g></g><g transform="translate(-542,-622) scale(1,1)"><g><path fill="none" stroke="none"/><text fill="#000000" stroke="none" font-family="Arial" font-size="13px" font-style="normal" font-weight="normal" text-decoration="none" x="845" y="1532.5">+getType(): int</text></g></g><g transform="translate(-542,-622) scale(1,1)"><g><path fill="none" stroke="none"/><text fill="#000000" stroke="none" font-family="Arial" font-size="13px" font-style="normal" font-weight="normal" text-decoration="none" x="845" y="1547.5">+getId(): int</text></g></g><g transform="translate(-542,-622) scale(1,1)"><g><path fill="none" stroke="none"/><text fill="#000000" stroke="none" font-family="Arial" font-size="13px" font-style="normal" font-weight="normal" text-decoration="none" x="845" y="1562.5">+getSocialValue(): int</text></g></g><g transform="translate(-542,-622) scale(1,1)"><g><path fill="none" stroke="none"/><text fill="#000000" stroke="none" font-family="Arial" font-size="13px" font-style="normal" font-weight="normal" text-decoration="none" x="845" y="1577.5">+getPerson1(): Person</text></g></g><g transform="translate(-542,-622) scale(1,1)"><g><path fill="none" stroke="none"/><text fill="#000000" stroke="none" font-family="Arial" font-size="13px" font-style="normal" font-weight="normal" text-decoration="none" x="845" y="1592.5">+getPerson2(): Person</text></g></g><g transform="translate(-542,-622) scale(1,1)"><g><path fill="none" stroke="none"/><text fill="#000000" stroke="none" font-family="Arial" font-size="13px" font-style="normal" font-weight="normal" text-decoration="none" x="845" y="1607.5">+getGroup(): Group</text></g></g><g transform="translate(-542,-622) scale(1,1)"><g><path fill="none" stroke="none"/><text fill="#000000" stroke="none" font-family="Arial" font-size="13px" font-style="normal" font-weight="normal" text-decoration="none" x="845" y="1622.5">+equals(obj: Object): boolean</text></g></g><g transform="translate(-542,-622) scale(1,1)"><rect fill="#C0C0C0" stroke="none" x="1542" y="800" width="274.54150390625" height="460" opacity="0.2"/></g><g transform="translate(-542,-622) scale(1,1)"><rect fill="#ffffff" stroke="none" x="1535" y="793" width="274.54150390625" height="460"/></g><g transform="translate(-542,-622) scale(1,1)"><path fill="none" stroke="#000000" d="M 1535 793 L 1809.54150390625 793 L 1809.54150390625 1253 L 1535 1253 L 1535 793 Z Z" stroke-miterlimit="10"/></g><g transform="translate(-542,-622) scale(1,1)"><path fill="none" stroke="#000000" d="M 1535 833 L 1809.54150390625 833" stroke-miterlimit="10"/></g><g transform="translate(-542,-622) scale(1,1)"><path fill="none" stroke="#000000" d="M 1535 901 L 1809.54150390625 901" stroke-miterlimit="10"/></g><g transform="translate(-542,-622) scale(1,1)"><g><path fill="none" stroke="none"/><text fill="#000000" stroke="none" font-family="Arial" font-size="13px" font-style="normal" font-weight="bold" text-decoration="none" x="1639.767578125" y="812.5">MyNetwork</text></g></g><g transform="translate(-542,-622) scale(1,1)"><g><path fill="none" stroke="none"/><text fill="#000000" stroke="none" font-family="Arial" font-size="13px" font-style="normal" font-weight="normal" text-decoration="none" x="1615.2021484375" y="827.5">(from JavaReverse)</text></g></g><g transform="translate(-542,-622) scale(1,1)"><g><path fill="none" stroke="none"/><text fill="#000000" stroke="none" font-family="Arial" font-size="13px" font-style="normal" font-weight="normal" text-decoration="none" x="1540" y="850.5">-people: HashMap {readOnly}</text></g></g><g transform="translate(-542,-622) scale(1,1)"><g><path fill="none" stroke="none"/><text fill="#000000" stroke="none" font-family="Arial" font-size="13px" font-style="normal" font-weight="normal" text-decoration="none" x="1540" y="865.5">-groups: HashMap {readOnly}</text></g></g><g transform="translate(-542,-622) scale(1,1)"><g><path fill="none" stroke="none"/><text fill="#000000" stroke="none" font-family="Arial" font-size="13px" font-style="normal" font-weight="normal" text-decoration="none" x="1540" y="880.5">-messages: HashMap {readOnly}</text></g></g><g transform="translate(-542,-622) scale(1,1)"><g><path fill="none" stroke="none"/><text fill="#000000" stroke="none" font-family="Arial" font-size="13px" font-style="normal" font-weight="normal" text-decoration="none" x="1540" y="895.5">-blockSum: int</text></g></g><g transform="translate(-542,-622) scale(1,1)"><g><path fill="none" stroke="none"/><text fill="#000000" stroke="none" font-family="Arial" font-size="13px" font-style="normal" font-weight="normal" text-decoration="none" x="1540" y="918.5">«constructor»+MyNetwork()</text></g></g><g transform="translate(-542,-622) scale(1,1)"><g><path fill="none" stroke="none"/><text fill="#000000" stroke="none" font-family="Arial" font-size="13px" font-style="normal" font-weight="normal" text-decoration="none" x="1540" y="933.5">+contains(id: int): boolean</text></g></g><g transform="translate(-542,-622) scale(1,1)"><g><path fill="none" stroke="none"/><text fill="#000000" stroke="none" font-family="Arial" font-size="13px" font-style="normal" font-weight="normal" text-decoration="none" x="1540" y="948.5">+getPerson(id: int): Person</text></g></g><g transform="translate(-542,-622) scale(1,1)"><g><path fill="none" stroke="none"/><text fill="#000000" stroke="none" font-family="Arial" font-size="13px" font-style="normal" font-weight="normal" text-decoration="none" x="1540" y="963.5">+addPerson(person: Person): void</text></g></g><g transform="translate(-542,-622) scale(1,1)"><g><path fill="none" stroke="none"/><text fill="#000000" stroke="none" font-family="Arial" font-size="13px" font-style="normal" font-weight="normal" text-decoration="none" x="1540" y="978.5">+addRelation(id1: int, id2: int, value: int): void</text></g></g><g transform="translate(-542,-622) scale(1,1)"><g><path fill="none" stroke="none"/><text fill="#000000" stroke="none" font-family="Arial" font-size="13px" font-style="normal" font-weight="normal" text-decoration="none" x="1540" y="993.5">+queryValue(id1: int, id2: int): int</text></g></g><g transform="translate(-542,-622) scale(1,1)"><g><path fill="none" stroke="none"/><text fill="#000000" stroke="none" font-family="Arial" font-size="13px" font-style="normal" font-weight="normal" text-decoration="none" x="1540" y="1008.5">+queryPeopleSum(): int</text></g></g><g transform="translate(-542,-622) scale(1,1)"><g><path fill="none" stroke="none"/><text fill="#000000" stroke="none" font-family="Arial" font-size="13px" font-style="normal" font-weight="normal" text-decoration="none" x="1540" y="1023.5">+isCircle(id1: int, id2: int): boolean</text></g></g><g transform="translate(-542,-622) scale(1,1)"><g><path fill="none" stroke="none"/><text fill="#000000" stroke="none" font-family="Arial" font-size="13px" font-style="normal" font-weight="normal" text-decoration="none" x="1540" y="1038.5">+queryBlockSum(): int</text></g></g><g transform="translate(-542,-622) scale(1,1)"><g><path fill="none" stroke="none"/><text fill="#000000" stroke="none" font-family="Arial" font-size="13px" font-style="normal" font-weight="normal" text-decoration="none" x="1540" y="1053.5">+addGroup(group: Group): void</text></g></g><g transform="translate(-542,-622) scale(1,1)"><g><path fill="none" stroke="none"/><text fill="#000000" stroke="none" font-family="Arial" font-size="13px" font-style="normal" font-weight="normal" text-decoration="none" x="1540" y="1068.5">+getGroup(id: int): Group</text></g></g><g transform="translate(-542,-622) scale(1,1)"><g><path fill="none" stroke="none"/><text fill="#000000" stroke="none" font-family="Arial" font-size="13px" font-style="normal" font-weight="normal" text-decoration="none" x="1540" y="1083.5">+addToGroup(id1: int, id2: int): void</text></g></g><g transform="translate(-542,-622) scale(1,1)"><g><path fill="none" stroke="none"/><text fill="#000000" stroke="none" font-family="Arial" font-size="13px" font-style="normal" font-weight="normal" text-decoration="none" x="1540" y="1098.5">+delFromGroup(id1: int, id2: int): void</text></g></g><g transform="translate(-542,-622) scale(1,1)"><g><path fill="none" stroke="none"/><text fill="#000000" stroke="none" font-family="Arial" font-size="13px" font-style="normal" font-weight="normal" text-decoration="none" x="1540" y="1113.5">+queryLeastConnection(id: int): int</text></g></g><g transform="translate(-542,-622) scale(1,1)"><g><path fill="none" stroke="none"/><text fill="#000000" stroke="none" font-family="Arial" font-size="13px" font-style="normal" font-weight="normal" text-decoration="none" x="1540" y="1128.5">+queryGroupPeopleSum(id: int): int</text></g></g><g transform="translate(-542,-622) scale(1,1)"><g><path fill="none" stroke="none"/><text fill="#000000" stroke="none" font-family="Arial" font-size="13px" font-style="normal" font-weight="normal" text-decoration="none" x="1540" y="1143.5">+queryGroupValueSum(id: int): int</text></g></g><g transform="translate(-542,-622) scale(1,1)"><g><path fill="none" stroke="none"/><text fill="#000000" stroke="none" font-family="Arial" font-size="13px" font-style="normal" font-weight="normal" text-decoration="none" x="1540" y="1158.5">+queryGroupAgeVar(id: int): int</text></g></g><g transform="translate(-542,-622) scale(1,1)"><g><path fill="none" stroke="none"/><text fill="#000000" stroke="none" font-family="Arial" font-size="13px" font-style="normal" font-weight="normal" text-decoration="none" x="1540" y="1173.5">+containsMessage(id: int): boolean</text></g></g><g transform="translate(-542,-622) scale(1,1)"><g><path fill="none" stroke="none"/><text fill="#000000" stroke="none" font-family="Arial" font-size="13px" font-style="normal" font-weight="normal" text-decoration="none" x="1540" y="1188.5">+addMessage(message: Message): void</text></g></g><g transform="translate(-542,-622) scale(1,1)"><g><path fill="none" stroke="none"/><text fill="#000000" stroke="none" font-family="Arial" font-size="13px" font-style="normal" font-weight="normal" text-decoration="none" x="1540" y="1203.5">+getMessage(id: int): Message</text></g></g><g transform="translate(-542,-622) scale(1,1)"><g><path fill="none" stroke="none"/><text fill="#000000" stroke="none" font-family="Arial" font-size="13px" font-style="normal" font-weight="normal" text-decoration="none" x="1540" y="1218.5">+sendMessage(id: int): void</text></g></g><g transform="translate(-542,-622) scale(1,1)"><g><path fill="none" stroke="none"/><text fill="#000000" stroke="none" font-family="Arial" font-size="13px" font-style="normal" font-weight="normal" text-decoration="none" x="1540" y="1233.5">+querySocialValue(id: int): int</text></g></g><g transform="translate(-542,-622) scale(1,1)"><g><path fill="none" stroke="none"/><text fill="#000000" stroke="none" font-family="Arial" font-size="13px" font-style="normal" font-weight="normal" text-decoration="none" x="1540" y="1248.5">+queryReceivedMessages(id: int): Message[*]</text></g></g><g transform="translate(-542,-622) scale(1,1)"><path fill="none" stroke="#000000" d="M 1811 983 L 1999 928" stroke-miterlimit="10"/></g><g transform="translate(-542,-622) scale(1,1)"><path fill="none" stroke="#000000" d="M 1990.428125196479 934.8936900389241 L 1999 928 L 1988.0641942250268 926.8133441728695" stroke-miterlimit="10"/></g><g transform="translate(-542,-622) scale(1,1)"><g><path fill="none" stroke="none"/><text fill="#000000" stroke="none" font-family="Arial" font-size="13px" font-style="normal" font-weight="normal" text-decoration="none" x="1936.5" y="926.5">-disjointSet</text></g></g><g transform="translate(-542,-622) scale(1,1)"><g><path fill="none" stroke="none"/><text fill="#000000" stroke="none" font-family="Arial" font-size="13px" font-style="normal" font-weight="normal" text-decoration="none" x="1932.5" y="914.5">{readOnly}</text></g></g><g transform="translate(-542,-622) scale(1,1)"><path fill="none" stroke="#000000" d="M 1811 1075 L 1959 1131" stroke-miterlimit="10"/></g><g transform="translate(-542,-622) scale(1,1)"><path fill="none" stroke="#000000" d="M 1948.0052747988816 1131.3406137869997 L 1959 1131 L 1950.9847049344535 1123.4664055715598" stroke-miterlimit="10"/></g><g transform="translate(-542,-622) scale(1,1)"><g><path fill="none" stroke="none"/><text fill="#000000" stroke="none" font-family="Arial" font-size="13px" font-style="normal" font-weight="normal" text-decoration="none" x="1920.5" y="1113.5">-edges</text></g></g><g transform="translate(-542,-622) scale(1,1)"><g><path fill="none" stroke="none"/><text fill="#000000" stroke="none" font-family="Arial" font-size="13px" font-style="normal" font-weight="normal" text-decoration="none" x="1847.5" y="1100.5">{readOnly, collection="ArrayList"}</text></g></g><g transform="translate(-542,-622) scale(1,1)"><g><path fill="none" stroke="none"/><text fill="#000000" stroke="none" font-family="Arial" font-size="13px" font-style="normal" font-weight="normal" text-decoration="none" x="1931.5" y="1141.5">*</text></g></g><g transform="translate(-542,-622) scale(1,1)"><rect fill="#C0C0C0" stroke="none" x="559" y="823" width="392.84912109375" height="415" opacity="0.2"/></g><g transform="translate(-542,-622) scale(1,1)"><rect fill="#ffffff" stroke="none" x="552" y="816" width="392.84912109375" height="415"/></g><g transform="translate(-542,-622) scale(1,1)"><path fill="none" stroke="#000000" d="M 552 816 L 944.84912109375 816 L 944.84912109375 1231 L 552 1231 L 552 816 Z Z" stroke-miterlimit="10"/></g><g transform="translate(-542,-622) scale(1,1)"><path fill="none" stroke="#000000" d="M 552 856 L 944.84912109375 856" stroke-miterlimit="10"/></g><g transform="translate(-542,-622) scale(1,1)"><path fill="none" stroke="#000000" d="M 552 969 L 944.84912109375 969" stroke-miterlimit="10"/></g><g transform="translate(-542,-622) scale(1,1)"><g><path fill="none" stroke="none"/><text fill="#000000" stroke="none" font-family="Arial" font-size="13px" font-style="normal" font-weight="bold" text-decoration="none" x="719.1650390625" y="835.5">MyPerson</text></g></g><g transform="translate(-542,-622) scale(1,1)"><g><path fill="none" stroke="none"/><text fill="#000000" stroke="none" font-family="Arial" font-size="13px" font-style="normal" font-weight="normal" text-decoration="none" x="691.35595703125" y="850.5">(from JavaReverse)</text></g></g><g transform="translate(-542,-622) scale(1,1)"><g><path fill="none" stroke="none"/><text fill="#000000" stroke="none" font-family="Arial" font-size="13px" font-style="normal" font-weight="normal" text-decoration="none" x="557" y="873.5">-id: int {readOnly}</text></g></g><g transform="translate(-542,-622) scale(1,1)"><g><path fill="none" stroke="none"/><text fill="#000000" stroke="none" font-family="Arial" font-size="13px" font-style="normal" font-weight="normal" text-decoration="none" x="557" y="888.5">-name: String {readOnly}</text></g></g><g transform="translate(-542,-622) scale(1,1)"><g><path fill="none" stroke="none"/><text fill="#000000" stroke="none" font-family="Arial" font-size="13px" font-style="normal" font-weight="normal" text-decoration="none" x="557" y="903.5">-age: int {readOnly}</text></g></g><g transform="translate(-542,-622) scale(1,1)"><g><path fill="none" stroke="none"/><text fill="#000000" stroke="none" font-family="Arial" font-size="13px" font-style="normal" font-weight="normal" text-decoration="none" x="557" y="918.5">-acquaintance: HashMap {readOnly}</text></g></g><g transform="translate(-542,-622) scale(1,1)"><g><path fill="none" stroke="none"/><text fill="#000000" stroke="none" font-family="Arial" font-size="13px" font-style="normal" font-weight="normal" text-decoration="none" x="557" y="933.5">-value: HashMap {readOnly}</text></g></g><g transform="translate(-542,-622) scale(1,1)"><g><path fill="none" stroke="none"/><text fill="#000000" stroke="none" font-family="Arial" font-size="13px" font-style="normal" font-weight="normal" text-decoration="none" x="557" y="948.5">-money: int</text></g></g><g transform="translate(-542,-622) scale(1,1)"><g><path fill="none" stroke="none"/><text fill="#000000" stroke="none" font-family="Arial" font-size="13px" font-style="normal" font-weight="normal" text-decoration="none" x="557" y="963.5">-socialValue: int</text></g></g><g transform="translate(-542,-622) scale(1,1)"><g><path fill="none" stroke="none"/><text fill="#000000" stroke="none" font-family="Arial" font-size="13px" font-style="normal" font-weight="normal" text-decoration="none" x="557" y="986.5">«constructor»+MyPerson(id: int, name: String, age: int)</text></g></g><g transform="translate(-542,-622) scale(1,1)"><g><path fill="none" stroke="none"/><text fill="#000000" stroke="none" font-family="Arial" font-size="13px" font-style="normal" font-weight="normal" text-decoration="none" x="557" y="1001.5">+addRelation(personId: int, person: Person, personValue: int): void</text></g></g><g transform="translate(-542,-622) scale(1,1)"><g><path fill="none" stroke="none"/><text fill="#000000" stroke="none" font-family="Arial" font-size="13px" font-style="normal" font-weight="normal" text-decoration="none" x="557" y="1016.5">+delRelation(personId: int, person: Person): void</text></g></g><g transform="translate(-542,-622) scale(1,1)"><g><path fill="none" stroke="none"/><text fill="#000000" stroke="none" font-family="Arial" font-size="13px" font-style="normal" font-weight="normal" text-decoration="none" x="557" y="1031.5">+addMessage(message: Message): void</text></g></g><g transform="translate(-542,-622) scale(1,1)"><g><path fill="none" stroke="none"/><text fill="#000000" stroke="none" font-family="Arial" font-size="13px" font-style="normal" font-weight="normal" text-decoration="none" x="557" y="1046.5">+getId(): int</text></g></g><g transform="translate(-542,-622) scale(1,1)"><g><path fill="none" stroke="none"/><text fill="#000000" stroke="none" font-family="Arial" font-size="13px" font-style="normal" font-weight="normal" text-decoration="none" x="557" y="1061.5">+getName(): String</text></g></g><g transform="translate(-542,-622) scale(1,1)"><g><path fill="none" stroke="none"/><text fill="#000000" stroke="none" font-family="Arial" font-size="13px" font-style="normal" font-weight="normal" text-decoration="none" x="557" y="1076.5">+getAge(): int</text></g></g><g transform="translate(-542,-622) scale(1,1)"><g><path fill="none" stroke="none"/><text fill="#000000" stroke="none" font-family="Arial" font-size="13px" font-style="normal" font-weight="normal" text-decoration="none" x="557" y="1091.5">+equals(obj: Object): boolean</text></g></g><g transform="translate(-542,-622) scale(1,1)"><g><path fill="none" stroke="none"/><text fill="#000000" stroke="none" font-family="Arial" font-size="13px" font-style="normal" font-weight="normal" text-decoration="none" x="557" y="1106.5">+isLinked(person: Person): boolean</text></g></g><g transform="translate(-542,-622) scale(1,1)"><g><path fill="none" stroke="none"/><text fill="#000000" stroke="none" font-family="Arial" font-size="13px" font-style="normal" font-weight="normal" text-decoration="none" x="557" y="1121.5">+queryValue(person: Person): int</text></g></g><g transform="translate(-542,-622) scale(1,1)"><g><path fill="none" stroke="none"/><text fill="#000000" stroke="none" font-family="Arial" font-size="13px" font-style="normal" font-weight="normal" text-decoration="none" x="557" y="1136.5">+compareTo(p2: Person): int</text></g></g><g transform="translate(-542,-622) scale(1,1)"><g><path fill="none" stroke="none"/><text fill="#000000" stroke="none" font-family="Arial" font-size="13px" font-style="normal" font-weight="normal" text-decoration="none" x="557" y="1151.5">+addSocialValue(num: int): void</text></g></g><g transform="translate(-542,-622) scale(1,1)"><g><path fill="none" stroke="none"/><text fill="#000000" stroke="none" font-family="Arial" font-size="13px" font-style="normal" font-weight="normal" text-decoration="none" x="557" y="1166.5">+getSocialValue(): int</text></g></g><g transform="translate(-542,-622) scale(1,1)"><g><path fill="none" stroke="none"/><text fill="#000000" stroke="none" font-family="Arial" font-size="13px" font-style="normal" font-weight="normal" text-decoration="none" x="557" y="1181.5">+getMessages(): Message[*]</text></g></g><g transform="translate(-542,-622) scale(1,1)"><g><path fill="none" stroke="none"/><text fill="#000000" stroke="none" font-family="Arial" font-size="13px" font-style="normal" font-weight="normal" text-decoration="none" x="557" y="1196.5">+getReceivedMessages(): Message[*]</text></g></g><g transform="translate(-542,-622) scale(1,1)"><g><path fill="none" stroke="none"/><text fill="#000000" stroke="none" font-family="Arial" font-size="13px" font-style="normal" font-weight="normal" text-decoration="none" x="557" y="1211.5">+addMoney(num: int): void</text></g></g><g transform="translate(-542,-622) scale(1,1)"><g><path fill="none" stroke="none"/><text fill="#000000" stroke="none" font-family="Arial" font-size="13px" font-style="normal" font-weight="normal" text-decoration="none" x="557" y="1226.5">+getMoney(): int</text></g></g><g transform="translate(-542,-622) scale(1,1)"><path fill="none" stroke="#000000" d="M 946 1025 L 1127 1026" stroke-miterlimit="10"/></g><g transform="translate(-542,-622) scale(1,1)"><path fill="#FFFFFF" stroke="none" d="M 1116.8142235928353 1030.1533069936193 L 1127 1026 L 1116.8607368913063 1021.7343999703816 L 1105.0003357574 1025.8784548936874"/></g><g transform="translate(-542,-622) scale(1,1)"><path fill="none" stroke="#000000" d="M 1116.8142235928353 1030.1533069936193 L 1127 1026 L 1116.8607368913063 1021.7343999703816 L 1105.0003357574 1025.8784548936874 L 1116.8142235928353 1030.1533069936193" stroke-miterlimit="10"/></g><g transform="translate(-542,-622) scale(1,1)"><path fill="none" stroke="#000000" d="M 1376 1026 L 1534 1024" stroke-miterlimit="10"/></g><g transform="translate(-542,-622) scale(1,1)"><path fill="#FFFFFF" stroke="none" d="M 1523.8914199974117 1028.3378116984575 L 1534 1024 L 1523.7848584645135 1019.9194505994928 L 1512.0017623262736 1024.2784587047306"/></g><g transform="translate(-542,-622) scale(1,1)"><path fill="none" stroke="#000000" d="M 1523.8914199974117 1028.3378116984575 L 1534 1024 L 1523.7848584645135 1019.9194505994928 L 1512.0017623262736 1024.2784587047306 L 1523.8914199974117 1028.3378116984575" stroke-miterlimit="10"/></g><g transform="translate(-542,-622) scale(1,1)"><path fill="none" stroke="#000000" d="M 746 815 L 744 632 L 1672 632 L 1672 792" stroke-miterlimit="10"/></g><g transform="translate(-542,-622) scale(1,1)"><path fill="#FFFFFF" stroke="none" d="M 1667.7904822439841 781.8373251423759 L 1672 792 L 1676.2095177560159 781.8373251423759 L 1672 770"/></g><g transform="translate(-542,-622) scale(1,1)"><path fill="none" stroke="#000000" d="M 1667.7904822439841 781.8373251423759 L 1672 792 L 1676.2095177560159 781.8373251423759 L 1672 770 L 1667.7904822439841 781.8373251423759" stroke-miterlimit="10"/></g><g transform="translate(-542,-622) scale(1,1)"><path fill="none" stroke="#000000" d="M 1562 1511 L 1672 1512 L 1672 1254" stroke-miterlimit="10"/></g><g transform="translate(-542,-622) scale(1,1)"><path fill="#FFFFFF" stroke="none" d="M 1676.2095177560159 1264.162674857624 L 1672 1254 L 1667.7904822439841 1264.162674857624 L 1672 1276"/></g><g transform="translate(-542,-622) scale(1,1)"><path fill="none" stroke="#000000" d="M 1676.2095177560159 1264.162674857624 L 1672 1254 L 1667.7904822439841 1264.162674857624 L 1672 1276 L 1676.2095177560159 1264.162674857624" stroke-miterlimit="10"/></g><g transform="translate(-542,-622) scale(1,1)"><path fill="none" stroke="#000000" d="M 839 1511 L 744 1512 L 746 1232" stroke-miterlimit="10"/></g><g transform="translate(-542,-622) scale(1,1)"><path fill="#FFFFFF" stroke="none" d="M 750.1368216914991 1242.192482832595 L 746 1232 L 741.7180009425633 1242.132348398674 L 745.8428611514502 1253.9994387969848"/></g><g transform="translate(-542,-622) scale(1,1)"><path fill="none" stroke="#000000" d="M 750.1368216914991 1242.192482832595 L 746 1232 L 741.7180009425633 1242.132348398674 L 745.8428611514502 1253.9994387969848 L 750.1368216914991 1242.192482832595" stroke-miterlimit="10"/></g></g></svg>