<svg version="1.1" xmlns="http://www.w3.org/2000/svg" xmlns:xlink="http://www.w3.org/1999/xlink" width="1585.455078125" height="1212"><defs/><g><g transform="translate(-70,-118) scale(1,1)"><rect fill="#C0C0C0" stroke="none" x="1431" y="447" width="166.87890625" height="160" opacity="0.2"/></g><g transform="translate(-70,-118) scale(1,1)"><rect fill="#ffffff" stroke="none" x="1424" y="440" width="166.87890625" height="160"/></g><g transform="translate(-70,-118) scale(1,1)"><path fill="none" stroke="#000000" d="M 1424 440 L 1590.87890625 440 L 1590.87890625 600 L 1424 600 L 1424 440 Z Z" stroke-miterlimit="10"/></g><g transform="translate(-70,-118) scale(1,1)"><path fill="none" stroke="#000000" d="M 1424 480 L 1590.87890625 480" stroke-miterlimit="10"/></g><g transform="translate(-70,-118) scale(1,1)"><path fill="none" stroke="#000000" d="M 1424 518 L 1590.87890625 518" stroke-miterlimit="10"/></g><g transform="translate(-70,-118) scale(1,1)"><g><path fill="none" stroke="none"/><text fill="#000000" stroke="none" font-family="Arial" font-size="13px" font-style="normal" font-weight="bold" text-decoration="none" x="1476.370849609375" y="459.5">DisjointSet</text></g></g><g transform="translate(-70,-118) scale(1,1)"><g><path fill="none" stroke="none"/><text fill="#000000" stroke="none" font-family="Arial" font-size="13px" font-style="normal" font-weight="normal" text-decoration="none" x="1450.370849609375" y="474.5">(from JavaReverse)</text></g></g><g transform="translate(-70,-118) scale(1,1)"><g><path fill="none" stroke="none"/><text fill="#000000" stroke="none" font-family="Arial" font-size="13px" font-style="normal" font-weight="normal" text-decoration="none" x="1429" y="497.5">-pre: HashMap</text></g></g><g transform="translate(-70,-118) scale(1,1)"><g><path fill="none" stroke="none"/><text fill="#000000" stroke="none" font-family="Arial" font-size="13px" font-style="normal" font-weight="normal" text-decoration="none" x="1429" y="512.5">-rank: HashMap</text></g></g><g transform="translate(-70,-118) scale(1,1)"><g><path fill="none" stroke="none"/><text fill="#000000" stroke="none" font-family="Arial" font-size="13px" font-style="normal" font-weight="normal" text-decoration="none" x="1429" y="535.5">«constructor»+DisjointSet()</text></g></g><g transform="translate(-70,-118) scale(1,1)"><g><path fill="none" stroke="none"/><text fill="#000000" stroke="none" font-family="Arial" font-size="13px" font-style="normal" font-weight="normal" text-decoration="none" x="1429" y="550.5">+getSize(): int</text></g></g><g transform="translate(-70,-118) scale(1,1)"><g><path fill="none" stroke="none"/><text fill="#000000" stroke="none" font-family="Arial" font-size="13px" font-style="normal" font-weight="normal" text-decoration="none" x="1429" y="565.5">+find(id: int): int</text></g></g><g transform="translate(-70,-118) scale(1,1)"><g><path fill="none" stroke="none"/><text fill="#000000" stroke="none" font-family="Arial" font-size="13px" font-style="normal" font-weight="normal" text-decoration="none" x="1429" y="580.5">+merge(id1: int, id2: int): int</text></g></g><g transform="translate(-70,-118) scale(1,1)"><g><path fill="none" stroke="none"/><text fill="#000000" stroke="none" font-family="Arial" font-size="13px" font-style="normal" font-weight="normal" text-decoration="none" x="1429" y="595.5">+add(id: int): void</text></g></g><g transform="translate(-70,-118) scale(1,1)"><rect fill="#C0C0C0" stroke="none" x="1375" y="663" width="277.455078125" height="175" opacity="0.2"/></g><g transform="translate(-70,-118) scale(1,1)"><rect fill="#ffffff" stroke="none" x="1368" y="656" width="277.455078125" height="175"/></g><g transform="translate(-70,-118) scale(1,1)"><path fill="none" stroke="#000000" d="M 1368 656 L 1645.455078125 656 L 1645.455078125 831 L 1368 831 L 1368 656 Z Z" stroke-miterlimit="10"/></g><g transform="translate(-70,-118) scale(1,1)"><path fill="none" stroke="#000000" d="M 1368 696 L 1645.455078125 696" stroke-miterlimit="10"/></g><g transform="translate(-70,-118) scale(1,1)"><path fill="none" stroke="#000000" d="M 1368 749 L 1645.455078125 749" stroke-miterlimit="10"/></g><g transform="translate(-70,-118) scale(1,1)"><g><path fill="none" stroke="none"/><text fill="#000000" stroke="none" font-family="Arial" font-size="13px" font-style="normal" font-weight="bold" text-decoration="none" x="1491.547119140625" y="675.5">Edge</text></g></g><g transform="translate(-70,-118) scale(1,1)"><g><path fill="none" stroke="none"/><text fill="#000000" stroke="none" font-family="Arial" font-size="13px" font-style="normal" font-weight="normal" text-decoration="none" x="1449.658935546875" y="690.5">(from JavaReverse)</text></g></g><g transform="translate(-70,-118) scale(1,1)"><g><path fill="none" stroke="none"/><text fill="#000000" stroke="none" font-family="Arial" font-size="13px" font-style="normal" font-weight="normal" text-decoration="none" x="1373" y="713.5">-value: int</text></g></g><g transform="translate(-70,-118) scale(1,1)"><g><path fill="none" stroke="none"/><text fill="#000000" stroke="none" font-family="Arial" font-size="13px" font-style="normal" font-weight="normal" text-decoration="none" x="1373" y="728.5">-id1: int</text></g></g><g transform="translate(-70,-118) scale(1,1)"><g><path fill="none" stroke="none"/><text fill="#000000" stroke="none" font-family="Arial" font-size="13px" font-style="normal" font-weight="normal" text-decoration="none" x="1373" y="743.5">-id2: int</text></g></g><g transform="translate(-70,-118) scale(1,1)"><g><path fill="none" stroke="none"/><text fill="#000000" stroke="none" font-family="Arial" font-size="13px" font-style="normal" font-weight="normal" text-decoration="none" x="1373" y="766.5">«constructor»+Edge(value: int, id1: int, id2: int)</text></g></g><g transform="translate(-70,-118) scale(1,1)"><g><path fill="none" stroke="none"/><text fill="#000000" stroke="none" font-family="Arial" font-size="13px" font-style="normal" font-weight="normal" text-decoration="none" x="1373" y="781.5">+compareTo(o: Object): int</text></g></g><g transform="translate(-70,-118) scale(1,1)"><g><path fill="none" stroke="none"/><text fill="#000000" stroke="none" font-family="Arial" font-size="13px" font-style="normal" font-weight="normal" text-decoration="none" x="1373" y="796.5">+getId1(): int</text></g></g><g transform="translate(-70,-118) scale(1,1)"><g><path fill="none" stroke="none"/><text fill="#000000" stroke="none" font-family="Arial" font-size="13px" font-style="normal" font-weight="normal" text-decoration="none" x="1373" y="811.5">+getId2(): int</text></g></g><g transform="translate(-70,-118) scale(1,1)"><g><path fill="none" stroke="none"/><text fill="#000000" stroke="none" font-family="Arial" font-size="13px" font-style="normal" font-weight="normal" text-decoration="none" x="1373" y="826.5">+getValue(): int</text></g></g><g transform="translate(-70,-118) scale(1,1)"><rect fill="#C0C0C0" stroke="none" x="1399" y="247" width="226.140625" height="145" opacity="0.2"/></g><g transform="translate(-70,-118) scale(1,1)"><rect fill="#ffffff" stroke="none" x="1392" y="240" width="226.140625" height="145"/></g><g transform="translate(-70,-118) scale(1,1)"><path fill="none" stroke="#000000" d="M 1392 240 L 1618.140625 240 L 1618.140625 385 L 1392 385 L 1392 240 Z Z" stroke-miterlimit="10"/></g><g transform="translate(-70,-118) scale(1,1)"><path fill="none" stroke="#000000" d="M 1392 280 L 1618.140625 280" stroke-miterlimit="10"/></g><g transform="translate(-70,-118) scale(1,1)"><path fill="none" stroke="#000000" d="M 1392 318 L 1618.140625 318" stroke-miterlimit="10"/></g><g transform="translate(-70,-118) scale(1,1)"><g><path fill="none" stroke="none"/><text fill="#000000" stroke="none" font-family="Arial" font-size="13px" font-style="normal" font-weight="bold" text-decoration="none" x="1489.53125" y="259.5">Node</text></g></g><g transform="translate(-70,-118) scale(1,1)"><g><path fill="none" stroke="none"/><text fill="#000000" stroke="none" font-family="Arial" font-size="13px" font-style="normal" font-weight="normal" text-decoration="none" x="1448.001708984375" y="274.5">(from JavaReverse)</text></g></g><g transform="translate(-70,-118) scale(1,1)"><g><path fill="none" stroke="none"/><text fill="#000000" stroke="none" font-family="Arial" font-size="13px" font-style="normal" font-weight="normal" text-decoration="none" x="1397" y="297.5">-to: int {readOnly}</text></g></g><g transform="translate(-70,-118) scale(1,1)"><g><path fill="none" stroke="none"/><text fill="#000000" stroke="none" font-family="Arial" font-size="13px" font-style="normal" font-weight="normal" text-decoration="none" x="1397" y="312.5">-value: int {readOnly}</text></g></g><g transform="translate(-70,-118) scale(1,1)"><g><path fill="none" stroke="none"/><text fill="#000000" stroke="none" font-family="Arial" font-size="13px" font-style="normal" font-weight="normal" text-decoration="none" x="1397" y="335.5">«constructor»+Node(to: int, value: int)</text></g></g><g transform="translate(-70,-118) scale(1,1)"><g><path fill="none" stroke="none"/><text fill="#000000" stroke="none" font-family="Arial" font-size="13px" font-style="normal" font-weight="normal" text-decoration="none" x="1397" y="350.5">+compareTo(o: Node): int</text></g></g><g transform="translate(-70,-118) scale(1,1)"><g><path fill="none" stroke="none"/><text fill="#000000" stroke="none" font-family="Arial" font-size="13px" font-style="normal" font-weight="normal" text-decoration="none" x="1397" y="365.5">+getTo(): int</text></g></g><g transform="translate(-70,-118) scale(1,1)"><g><path fill="none" stroke="none"/><text fill="#000000" stroke="none" font-family="Arial" font-size="13px" font-style="normal" font-weight="normal" text-decoration="none" x="1397" y="380.5">+getValue(): int</text></g></g><g transform="translate(-70,-118) scale(1,1)"><rect fill="#C0C0C0" stroke="none" x="335" y="1239" width="200" height="88" opacity="0.2"/></g><g transform="translate(-70,-118) scale(1,1)"><rect fill="#ffffff" stroke="none" x="328" y="1232" width="200" height="88"/></g><g transform="translate(-70,-118) scale(1,1)"><path fill="none" stroke="#000000" d="M 328 1232 L 528 1232 L 528 1320 L 328 1320 L 328 1232 Z Z" stroke-miterlimit="10"/></g><g transform="translate(-70,-118) scale(1,1)"><path fill="none" stroke="#000000" d="M 328 1272 L 528 1272" stroke-miterlimit="10"/></g><g transform="translate(-70,-118) scale(1,1)"><path fill="none" stroke="#000000" d="M 328 1295 L 528 1295" stroke-miterlimit="10"/></g><g transform="translate(-70,-118) scale(1,1)"><g><path fill="none" stroke="none"/><text fill="#000000" stroke="none" font-family="Arial" font-size="13px" font-style="normal" font-weight="bold" text-decoration="none" x="376.707763671875" y="1251.5">MyEmojiMessage</text></g></g><g transform="translate(-70,-118) scale(1,1)"><g><path fill="none" stroke="none"/><text fill="#000000" stroke="none" font-family="Arial" font-size="13px" font-style="normal" font-weight="normal" text-decoration="none" x="370.931396484375" y="1266.5">(from JavaReverse)</text></g></g><g transform="translate(-70,-118) scale(1,1)"><g><path fill="none" stroke="none"/><text fill="#000000" stroke="none" font-family="Arial" font-size="13px" font-style="normal" font-weight="normal" text-decoration="none" x="333" y="1289.5">-emojiId: int {readOnly}</text></g></g><g transform="translate(-70,-118) scale(1,1)"><g><path fill="none" stroke="none"/><text fill="#000000" stroke="none" font-family="Arial" font-size="13px" font-style="normal" font-weight="normal" text-decoration="none" x="333" y="1314.5">+getEmojiId(): int</text></g></g><g transform="translate(-70,-118) scale(1,1)"><rect fill="#C0C0C0" stroke="none" x="871" y="1239" width="208" height="88" opacity="0.2"/></g><g transform="translate(-70,-118) scale(1,1)"><rect fill="#ffffff" stroke="none" x="864" y="1232" width="208" height="88"/></g><g transform="translate(-70,-118) scale(1,1)"><path fill="none" stroke="#000000" d="M 864 1232 L 1072 1232 L 1072 1320 L 864 1320 L 864 1232 Z Z" stroke-miterlimit="10"/></g><g transform="translate(-70,-118) scale(1,1)"><path fill="none" stroke="#000000" d="M 864 1272 L 1072 1272" stroke-miterlimit="10"/></g><g transform="translate(-70,-118) scale(1,1)"><path fill="none" stroke="#000000" d="M 864 1295 L 1072 1295" stroke-miterlimit="10"/></g><g transform="translate(-70,-118) scale(1,1)"><g><path fill="none" stroke="none"/><text fill="#000000" stroke="none" font-family="Arial" font-size="13px" font-style="normal" font-weight="bold" text-decoration="none" x="893.932373046875" y="1251.5">MyRedEnvelopeMessage</text></g></g><g transform="translate(-70,-118) scale(1,1)"><g><path fill="none" stroke="none"/><text fill="#000000" stroke="none" font-family="Arial" font-size="13px" font-style="normal" font-weight="normal" text-decoration="none" x="910.931396484375" y="1266.5">(from JavaReverse)</text></g></g><g transform="translate(-70,-118) scale(1,1)"><g><path fill="none" stroke="none"/><text fill="#000000" stroke="none" font-family="Arial" font-size="13px" font-style="normal" font-weight="normal" text-decoration="none" x="869" y="1289.5">-money: int {readOnly}</text></g></g><g transform="translate(-70,-118) scale(1,1)"><g><path fill="none" stroke="none"/><text fill="#000000" stroke="none" font-family="Arial" font-size="13px" font-style="normal" font-weight="normal" text-decoration="none" x="869" y="1314.5">+getMoney(): int</text></g></g><g transform="translate(-70,-118) scale(1,1)"><rect fill="#C0C0C0" stroke="none" x="607" y="1239" width="200" height="88" opacity="0.2"/></g><g transform="translate(-70,-118) scale(1,1)"><rect fill="#ffffff" stroke="none" x="600" y="1232" width="200" height="88"/></g><g transform="translate(-70,-118) scale(1,1)"><path fill="none" stroke="#000000" d="M 600 1232 L 800 1232 L 800 1320 L 600 1320 L 600 1232 Z Z" stroke-miterlimit="10"/></g><g transform="translate(-70,-118) scale(1,1)"><path fill="none" stroke="#000000" d="M 600 1272 L 800 1272" stroke-miterlimit="10"/></g><g transform="translate(-70,-118) scale(1,1)"><path fill="none" stroke="#000000" d="M 600 1295 L 800 1295" stroke-miterlimit="10"/></g><g transform="translate(-70,-118) scale(1,1)"><g><path fill="none" stroke="none"/><text fill="#000000" stroke="none" font-family="Arial" font-size="13px" font-style="normal" font-weight="bold" text-decoration="none" x="646.536865234375" y="1251.5">MyNoticeMessage</text></g></g><g transform="translate(-70,-118) scale(1,1)"><g><path fill="none" stroke="none"/><text fill="#000000" stroke="none" font-family="Arial" font-size="13px" font-style="normal" font-weight="normal" text-decoration="none" x="642.931396484375" y="1266.5">(from JavaReverse)</text></g></g><g transform="translate(-70,-118) scale(1,1)"><g><path fill="none" stroke="none"/><text fill="#000000" stroke="none" font-family="Arial" font-size="13px" font-style="normal" font-weight="normal" text-decoration="none" x="605" y="1289.5">-noticeString: String {readOnly}</text></g></g><g transform="translate(-70,-118) scale(1,1)"><g><path fill="none" stroke="none"/><text fill="#000000" stroke="none" font-family="Arial" font-size="13px" font-style="normal" font-weight="normal" text-decoration="none" x="605" y="1314.5">+getString(): String</text></g></g><g transform="translate(-70,-118) scale(1,1)"><rect fill="#C0C0C0" stroke="none" x="615" y="375" width="246.62451171875" height="325" opacity="0.2"/></g><g transform="translate(-70,-118) scale(1,1)"><rect fill="#ffffff" stroke="none" x="608" y="368" width="246.62451171875" height="325"/></g><g transform="translate(-70,-118) scale(1,1)"><path fill="none" stroke="#000000" d="M 608 368 L 854.62451171875 368 L 854.62451171875 693 L 608 693 L 608 368 Z Z" stroke-miterlimit="10"/></g><g transform="translate(-70,-118) scale(1,1)"><path fill="none" stroke="#000000" d="M 608 408 L 854.62451171875 408" stroke-miterlimit="10"/></g><g transform="translate(-70,-118) scale(1,1)"><path fill="none" stroke="#000000" d="M 608 491 L 854.62451171875 491" stroke-miterlimit="10"/></g><g transform="translate(-70,-118) scale(1,1)"><g><path fill="none" stroke="none"/><text fill="#000000" stroke="none" font-family="Arial" font-size="13px" font-style="normal" font-weight="bold" text-decoration="none" x="704.582275390625" y="387.5">MyGroup</text></g></g><g transform="translate(-70,-118) scale(1,1)"><g><path fill="none" stroke="none"/><text fill="#000000" stroke="none" font-family="Arial" font-size="13px" font-style="normal" font-weight="normal" text-decoration="none" x="674.24365234375" y="402.5">(from JavaReverse)</text></g></g><g transform="translate(-70,-118) scale(1,1)"><g><path fill="none" stroke="none"/><text fill="#000000" stroke="none" font-family="Arial" font-size="13px" font-style="normal" font-weight="normal" text-decoration="none" x="613" y="425.5">-id: int {readOnly}</text></g></g><g transform="translate(-70,-118) scale(1,1)"><g><path fill="none" stroke="none"/><text fill="#000000" stroke="none" font-family="Arial" font-size="13px" font-style="normal" font-weight="normal" text-decoration="none" x="613" y="440.5">-people: HashMap {readOnly}</text></g></g><g transform="translate(-70,-118) scale(1,1)"><g><path fill="none" stroke="none"/><text fill="#000000" stroke="none" font-family="Arial" font-size="13px" font-style="normal" font-weight="normal" text-decoration="none" x="613" y="455.5">-ageSum: int</text></g></g><g transform="translate(-70,-118) scale(1,1)"><g><path fill="none" stroke="none"/><text fill="#000000" stroke="none" font-family="Arial" font-size="13px" font-style="normal" font-weight="normal" text-decoration="none" x="613" y="470.5">-agePowSum: int</text></g></g><g transform="translate(-70,-118) scale(1,1)"><g><path fill="none" stroke="none"/><text fill="#000000" stroke="none" font-family="Arial" font-size="13px" font-style="normal" font-weight="normal" text-decoration="none" x="613" y="485.5">-valueSum: int</text></g></g><g transform="translate(-70,-118) scale(1,1)"><g><path fill="none" stroke="none"/><text fill="#000000" stroke="none" font-family="Arial" font-size="13px" font-style="normal" font-weight="normal" text-decoration="none" x="613" y="508.5">«constructor»+MyGroup(id: int)</text></g></g><g transform="translate(-70,-118) scale(1,1)"><g><path fill="none" stroke="none"/><text fill="#000000" stroke="none" font-family="Arial" font-size="13px" font-style="normal" font-weight="normal" text-decoration="none" x="613" y="523.5">+setValueSum(valueSum: int): void</text></g></g><g transform="translate(-70,-118) scale(1,1)"><g><path fill="none" stroke="none"/><text fill="#000000" stroke="none" font-family="Arial" font-size="13px" font-style="normal" font-weight="normal" text-decoration="none" x="613" y="538.5">+allAddSocialValue(socialValue: int): void</text></g></g><g transform="translate(-70,-118) scale(1,1)"><g><path fill="none" stroke="none"/><text fill="#000000" stroke="none" font-family="Arial" font-size="13px" font-style="normal" font-weight="normal" text-decoration="none" x="613" y="553.5">+allAddMoney(money: int): void</text></g></g><g transform="translate(-70,-118) scale(1,1)"><g><path fill="none" stroke="none"/><text fill="#000000" stroke="none" font-family="Arial" font-size="13px" font-style="normal" font-weight="normal" text-decoration="none" x="613" y="568.5">+getId(): int</text></g></g><g transform="translate(-70,-118) scale(1,1)"><g><path fill="none" stroke="none"/><text fill="#000000" stroke="none" font-family="Arial" font-size="13px" font-style="normal" font-weight="normal" text-decoration="none" x="613" y="583.5">+equals(obj: Object): boolean</text></g></g><g transform="translate(-70,-118) scale(1,1)"><g><path fill="none" stroke="none"/><text fill="#000000" stroke="none" font-family="Arial" font-size="13px" font-style="normal" font-weight="normal" text-decoration="none" x="613" y="598.5">+hasPerson(person: Person): boolean</text></g></g><g transform="translate(-70,-118) scale(1,1)"><g><path fill="none" stroke="none"/><text fill="#000000" stroke="none" font-family="Arial" font-size="13px" font-style="normal" font-weight="normal" text-decoration="none" x="613" y="613.5">+addPerson(person: Person): void</text></g></g><g transform="translate(-70,-118) scale(1,1)"><g><path fill="none" stroke="none"/><text fill="#000000" stroke="none" font-family="Arial" font-size="13px" font-style="normal" font-weight="normal" text-decoration="none" x="613" y="628.5">+getValueSum(): int</text></g></g><g transform="translate(-70,-118) scale(1,1)"><g><path fill="none" stroke="none"/><text fill="#000000" stroke="none" font-family="Arial" font-size="13px" font-style="normal" font-weight="normal" text-decoration="none" x="613" y="643.5">+getAgeMean(): int</text></g></g><g transform="translate(-70,-118) scale(1,1)"><g><path fill="none" stroke="none"/><text fill="#000000" stroke="none" font-family="Arial" font-size="13px" font-style="normal" font-weight="normal" text-decoration="none" x="613" y="658.5">+getAgeVar(): int</text></g></g><g transform="translate(-70,-118) scale(1,1)"><g><path fill="none" stroke="none"/><text fill="#000000" stroke="none" font-family="Arial" font-size="13px" font-style="normal" font-weight="normal" text-decoration="none" x="613" y="673.5">+delPerson(person: Person): void</text></g></g><g transform="translate(-70,-118) scale(1,1)"><g><path fill="none" stroke="none"/><text fill="#000000" stroke="none" font-family="Arial" font-size="13px" font-style="normal" font-weight="normal" text-decoration="none" x="613" y="688.5">+getSize(): int</text></g></g><g transform="translate(-70,-118) scale(1,1)"><rect fill="#C0C0C0" stroke="none" x="351" y="927" width="720.8642578125" height="235" opacity="0.2"/></g><g transform="translate(-70,-118) scale(1,1)"><rect fill="#ffffff" stroke="none" x="344" y="920" width="720.8642578125" height="235"/></g><g transform="translate(-70,-118) scale(1,1)"><path fill="none" stroke="#000000" d="M 344 920 L 1064.8642578125 920 L 1064.8642578125 1155 L 344 1155 L 344 920 Z Z" stroke-miterlimit="10"/></g><g transform="translate(-70,-118) scale(1,1)"><path fill="none" stroke="#000000" d="M 344 960 L 1064.8642578125 960" stroke-miterlimit="10"/></g><g transform="translate(-70,-118) scale(1,1)"><path fill="none" stroke="#000000" d="M 344 1013 L 1064.8642578125 1013" stroke-miterlimit="10"/></g><g transform="translate(-70,-118) scale(1,1)"><g><path fill="none" stroke="none"/><text fill="#000000" stroke="none" font-family="Arial" font-size="13px" font-style="normal" font-weight="bold" text-decoration="none" x="669.39306640625" y="939.5">MyMessage</text></g></g><g transform="translate(-70,-118) scale(1,1)"><g><path fill="none" stroke="none"/><text fill="#000000" stroke="none" font-family="Arial" font-size="13px" font-style="normal" font-weight="normal" text-decoration="none" x="647.363525390625" y="954.5">(from JavaReverse)</text></g></g><g transform="translate(-70,-118) scale(1,1)"><g><path fill="none" stroke="none"/><text fill="#000000" stroke="none" font-family="Arial" font-size="13px" font-style="normal" font-weight="normal" text-decoration="none" x="349" y="977.5">-type: int</text></g></g><g transform="translate(-70,-118) scale(1,1)"><g><path fill="none" stroke="none"/><text fill="#000000" stroke="none" font-family="Arial" font-size="13px" font-style="normal" font-weight="normal" text-decoration="none" x="349" y="992.5">-id: int</text></g></g><g transform="translate(-70,-118) scale(1,1)"><g><path fill="none" stroke="none"/><text fill="#000000" stroke="none" font-family="Arial" font-size="13px" font-style="normal" font-weight="normal" text-decoration="none" x="349" y="1007.5">-socialValue: int</text></g></g><g transform="translate(-70,-118) scale(1,1)"><g><path fill="none" stroke="none"/><text fill="#000000" stroke="none" font-family="Arial" font-size="13px" font-style="normal" font-weight="normal" text-decoration="none" x="349" y="1030.5">«constructor»+MyMessage(messageId: int, messageSocialValue: int, messagePerson1: Person, messagePerson2: Person)</text></g></g><g transform="translate(-70,-118) scale(1,1)"><g><path fill="none" stroke="none"/><text fill="#000000" stroke="none" font-family="Arial" font-size="13px" font-style="normal" font-weight="normal" text-decoration="none" x="349" y="1045.5">«constructor»+MyMessage(messageId: int, messageSocialValue: int, messagePerson1: Person, messageGroup: Group)</text></g></g><g transform="translate(-70,-118) scale(1,1)"><g><path fill="none" stroke="none"/><text fill="#000000" stroke="none" font-family="Arial" font-size="13px" font-style="normal" font-weight="normal" text-decoration="none" x="349" y="1060.5">+getType(): int</text></g></g><g transform="translate(-70,-118) scale(1,1)"><g><path fill="none" stroke="none"/><text fill="#000000" stroke="none" font-family="Arial" font-size="13px" font-style="normal" font-weight="normal" text-decoration="none" x="349" y="1075.5">+getId(): int</text></g></g><g transform="translate(-70,-118) scale(1,1)"><g><path fill="none" stroke="none"/><text fill="#000000" stroke="none" font-family="Arial" font-size="13px" font-style="normal" font-weight="normal" text-decoration="none" x="349" y="1090.5">+getSocialValue(): int</text></g></g><g transform="translate(-70,-118) scale(1,1)"><g><path fill="none" stroke="none"/><text fill="#000000" stroke="none" font-family="Arial" font-size="13px" font-style="normal" font-weight="normal" text-decoration="none" x="349" y="1105.5">+getPerson1(): Person</text></g></g><g transform="translate(-70,-118) scale(1,1)"><g><path fill="none" stroke="none"/><text fill="#000000" stroke="none" font-family="Arial" font-size="13px" font-style="normal" font-weight="normal" text-decoration="none" x="349" y="1120.5">+getPerson2(): Person</text></g></g><g transform="translate(-70,-118) scale(1,1)"><g><path fill="none" stroke="none"/><text fill="#000000" stroke="none" font-family="Arial" font-size="13px" font-style="normal" font-weight="normal" text-decoration="none" x="349" y="1135.5">+getGroup(): Group</text></g></g><g transform="translate(-70,-118) scale(1,1)"><g><path fill="none" stroke="none"/><text fill="#000000" stroke="none" font-family="Arial" font-size="13px" font-style="normal" font-weight="normal" text-decoration="none" x="349" y="1150.5">+equals(obj: Object): boolean</text></g></g><g transform="translate(-70,-118) scale(1,1)"><path fill="none" stroke="#000000" d="M 480 1231 L 567 1156" stroke-miterlimit="10"/></g><g transform="translate(-70,-118) scale(1,1)"><path fill="#FFFFFF" stroke="none" d="M 557.102499518071 1175.6478875253858 L 567 1156 L 546.10825578724 1162.8945647976218"/></g><g transform="translate(-70,-118) scale(1,1)"><path fill="none" stroke="#000000" d="M 557.102499518071 1175.6478875253858 L 567 1156 L 546.10825578724 1162.8945647976218 L 557.102499518071 1175.6478875253858" stroke-miterlimit="10"/></g><g transform="translate(-70,-118) scale(1,1)"><path fill="none" stroke="#000000" d="M 701 1231 L 702 1156" stroke-miterlimit="10"/></g><g transform="translate(-70,-118) scale(1,1)"><path fill="#FFFFFF" stroke="none" d="M 710.1473066763082 1176.4357870883944 L 702 1156 L 693.3107321701358 1176.211299428312"/></g><g transform="translate(-70,-118) scale(1,1)"><path fill="none" stroke="#000000" d="M 710.1473066763082 1176.4357870883944 L 702 1156 L 693.3107321701358 1176.211299428312 L 710.1473066763082 1176.4357870883944" stroke-miterlimit="10"/></g><g transform="translate(-70,-118) scale(1,1)"><path fill="none" stroke="#000000" d="M 918 1231 L 835 1156" stroke-miterlimit="10"/></g><g transform="translate(-70,-118) scale(1,1)"><path fill="#FFFFFF" stroke="none" d="M 855.7250806407592 1163.38044933822 L 835 1156 L 844.4360792864597 1175.8736108369778"/></g><g transform="translate(-70,-118) scale(1,1)"><path fill="none" stroke="#000000" d="M 855.7250806407592 1163.38044933822 L 835 1156 L 844.4360792864597 1175.8736108369778 L 855.7250806407592 1163.38044933822" stroke-miterlimit="10"/></g><g transform="translate(-70,-118) scale(1,1)"><rect fill="#C0C0C0" stroke="none" x="87" y="311" width="392.84912109375" height="460" opacity="0.2"/></g><g transform="translate(-70,-118) scale(1,1)"><rect fill="#ffffff" stroke="none" x="80" y="304" width="392.84912109375" height="460"/></g><g transform="translate(-70,-118) scale(1,1)"><path fill="none" stroke="#000000" d="M 80 304 L 472.84912109375 304 L 472.84912109375 764 L 80 764 L 80 304 Z Z" stroke-miterlimit="10"/></g><g transform="translate(-70,-118) scale(1,1)"><path fill="none" stroke="#000000" d="M 80 344 L 472.84912109375 344" stroke-miterlimit="10"/></g><g transform="translate(-70,-118) scale(1,1)"><path fill="none" stroke="#000000" d="M 80 457 L 472.84912109375 457" stroke-miterlimit="10"/></g><g transform="translate(-70,-118) scale(1,1)"><g><path fill="none" stroke="none"/><text fill="#000000" stroke="none" font-family="Arial" font-size="13px" font-style="normal" font-weight="bold" text-decoration="none" x="247.1650390625" y="323.5">MyPerson</text></g></g><g transform="translate(-70,-118) scale(1,1)"><g><path fill="none" stroke="none"/><text fill="#000000" stroke="none" font-family="Arial" font-size="13px" font-style="normal" font-weight="normal" text-decoration="none" x="219.35595703125" y="338.5">(from JavaReverse)</text></g></g><g transform="translate(-70,-118) scale(1,1)"><g><path fill="none" stroke="none"/><text fill="#000000" stroke="none" font-family="Arial" font-size="13px" font-style="normal" font-weight="normal" text-decoration="none" x="85" y="361.5">-id: int {readOnly}</text></g></g><g transform="translate(-70,-118) scale(1,1)"><g><path fill="none" stroke="none"/><text fill="#000000" stroke="none" font-family="Arial" font-size="13px" font-style="normal" font-weight="normal" text-decoration="none" x="85" y="376.5">-name: String {readOnly}</text></g></g><g transform="translate(-70,-118) scale(1,1)"><g><path fill="none" stroke="none"/><text fill="#000000" stroke="none" font-family="Arial" font-size="13px" font-style="normal" font-weight="normal" text-decoration="none" x="85" y="391.5">-age: int {readOnly}</text></g></g><g transform="translate(-70,-118) scale(1,1)"><g><path fill="none" stroke="none"/><text fill="#000000" stroke="none" font-family="Arial" font-size="13px" font-style="normal" font-weight="normal" text-decoration="none" x="85" y="406.5">-acquaintance: HashMap {readOnly}</text></g></g><g transform="translate(-70,-118) scale(1,1)"><g><path fill="none" stroke="none"/><text fill="#000000" stroke="none" font-family="Arial" font-size="13px" font-style="normal" font-weight="normal" text-decoration="none" x="85" y="421.5">-value: HashMap {readOnly}</text></g></g><g transform="translate(-70,-118) scale(1,1)"><g><path fill="none" stroke="none"/><text fill="#000000" stroke="none" font-family="Arial" font-size="13px" font-style="normal" font-weight="normal" text-decoration="none" x="85" y="436.5">-money: int</text></g></g><g transform="translate(-70,-118) scale(1,1)"><g><path fill="none" stroke="none"/><text fill="#000000" stroke="none" font-family="Arial" font-size="13px" font-style="normal" font-weight="normal" text-decoration="none" x="85" y="451.5">-socialValue: int</text></g></g><g transform="translate(-70,-118) scale(1,1)"><g><path fill="none" stroke="none"/><text fill="#000000" stroke="none" font-family="Arial" font-size="13px" font-style="normal" font-weight="normal" text-decoration="none" x="85" y="474.5">«constructor»+MyPerson(id: int, name: String, age: int)</text></g></g><g transform="translate(-70,-118) scale(1,1)"><g><path fill="none" stroke="none"/><text fill="#000000" stroke="none" font-family="Arial" font-size="13px" font-style="normal" font-weight="normal" text-decoration="none" x="85" y="489.5">+addRelation(personId: int, person: Person, personValue: int): void</text></g></g><g transform="translate(-70,-118) scale(1,1)"><g><path fill="none" stroke="none"/><text fill="#000000" stroke="none" font-family="Arial" font-size="13px" font-style="normal" font-weight="normal" text-decoration="none" x="85" y="504.5">+delRelation(personId: int, person: Person): void</text></g></g><g transform="translate(-70,-118) scale(1,1)"><g><path fill="none" stroke="none"/><text fill="#000000" stroke="none" font-family="Arial" font-size="13px" font-style="normal" font-weight="normal" text-decoration="none" x="85" y="519.5">+addMessage(message: Message): void</text></g></g><g transform="translate(-70,-118) scale(1,1)"><g><path fill="none" stroke="none"/><text fill="#000000" stroke="none" font-family="Arial" font-size="13px" font-style="normal" font-weight="normal" text-decoration="none" x="85" y="534.5">+getFriends(): Integer[*]</text></g></g><g transform="translate(-70,-118) scale(1,1)"><g><path fill="none" stroke="none"/><text fill="#000000" stroke="none" font-family="Arial" font-size="13px" font-style="normal" font-weight="normal" text-decoration="none" x="85" y="549.5">+queryValueById(id: int): int</text></g></g><g transform="translate(-70,-118) scale(1,1)"><g><path fill="none" stroke="none"/><text fill="#000000" stroke="none" font-family="Arial" font-size="13px" font-style="normal" font-weight="normal" text-decoration="none" x="85" y="564.5">+delNoticeMessage(): void</text></g></g><g transform="translate(-70,-118) scale(1,1)"><g><path fill="none" stroke="none"/><text fill="#000000" stroke="none" font-family="Arial" font-size="13px" font-style="normal" font-weight="normal" text-decoration="none" x="85" y="579.5">+getId(): int</text></g></g><g transform="translate(-70,-118) scale(1,1)"><g><path fill="none" stroke="none"/><text fill="#000000" stroke="none" font-family="Arial" font-size="13px" font-style="normal" font-weight="normal" text-decoration="none" x="85" y="594.5">+getName(): String</text></g></g><g transform="translate(-70,-118) scale(1,1)"><g><path fill="none" stroke="none"/><text fill="#000000" stroke="none" font-family="Arial" font-size="13px" font-style="normal" font-weight="normal" text-decoration="none" x="85" y="609.5">+getAge(): int</text></g></g><g transform="translate(-70,-118) scale(1,1)"><g><path fill="none" stroke="none"/><text fill="#000000" stroke="none" font-family="Arial" font-size="13px" font-style="normal" font-weight="normal" text-decoration="none" x="85" y="624.5">+equals(obj: Object): boolean</text></g></g><g transform="translate(-70,-118) scale(1,1)"><g><path fill="none" stroke="none"/><text fill="#000000" stroke="none" font-family="Arial" font-size="13px" font-style="normal" font-weight="normal" text-decoration="none" x="85" y="639.5">+isLinked(person: Person): boolean</text></g></g><g transform="translate(-70,-118) scale(1,1)"><g><path fill="none" stroke="none"/><text fill="#000000" stroke="none" font-family="Arial" font-size="13px" font-style="normal" font-weight="normal" text-decoration="none" x="85" y="654.5">+queryValue(person: Person): int</text></g></g><g transform="translate(-70,-118) scale(1,1)"><g><path fill="none" stroke="none"/><text fill="#000000" stroke="none" font-family="Arial" font-size="13px" font-style="normal" font-weight="normal" text-decoration="none" x="85" y="669.5">+compareTo(p2: Person): int</text></g></g><g transform="translate(-70,-118) scale(1,1)"><g><path fill="none" stroke="none"/><text fill="#000000" stroke="none" font-family="Arial" font-size="13px" font-style="normal" font-weight="normal" text-decoration="none" x="85" y="684.5">+addSocialValue(num: int): void</text></g></g><g transform="translate(-70,-118) scale(1,1)"><g><path fill="none" stroke="none"/><text fill="#000000" stroke="none" font-family="Arial" font-size="13px" font-style="normal" font-weight="normal" text-decoration="none" x="85" y="699.5">+getSocialValue(): int</text></g></g><g transform="translate(-70,-118) scale(1,1)"><g><path fill="none" stroke="none"/><text fill="#000000" stroke="none" font-family="Arial" font-size="13px" font-style="normal" font-weight="normal" text-decoration="none" x="85" y="714.5">+getMessages(): Message[*]</text></g></g><g transform="translate(-70,-118) scale(1,1)"><g><path fill="none" stroke="none"/><text fill="#000000" stroke="none" font-family="Arial" font-size="13px" font-style="normal" font-weight="normal" text-decoration="none" x="85" y="729.5">+getReceivedMessages(): Message[*]</text></g></g><g transform="translate(-70,-118) scale(1,1)"><g><path fill="none" stroke="none"/><text fill="#000000" stroke="none" font-family="Arial" font-size="13px" font-style="normal" font-weight="normal" text-decoration="none" x="85" y="744.5">+addMoney(num: int): void</text></g></g><g transform="translate(-70,-118) scale(1,1)"><g><path fill="none" stroke="none"/><text fill="#000000" stroke="none" font-family="Arial" font-size="13px" font-style="normal" font-weight="normal" text-decoration="none" x="85" y="759.5">+getMoney(): int</text></g></g><g transform="translate(-70,-118) scale(1,1)"><rect fill="#C0C0C0" stroke="none" x="999" y="303" width="274.54150390625" height="460" opacity="0.2"/></g><g transform="translate(-70,-118) scale(1,1)"><rect fill="#ffffff" stroke="none" x="992" y="296" width="274.54150390625" height="460"/></g><g transform="translate(-70,-118) scale(1,1)"><path fill="none" stroke="#000000" d="M 992 296 L 1266.54150390625 296 L 1266.54150390625 756 L 992 756 L 992 296 Z Z" stroke-miterlimit="10"/></g><g transform="translate(-70,-118) scale(1,1)"><path fill="none" stroke="#000000" d="M 992 336 L 1266.54150390625 336" stroke-miterlimit="10"/></g><g transform="translate(-70,-118) scale(1,1)"><path fill="none" stroke="#000000" d="M 992 404 L 1266.54150390625 404" stroke-miterlimit="10"/></g><g transform="translate(-70,-118) scale(1,1)"><g><path fill="none" stroke="none"/><text fill="#000000" stroke="none" font-family="Arial" font-size="13px" font-style="normal" font-weight="bold" text-decoration="none" x="1096.767578125" y="315.5">MyNetwork</text></g></g><g transform="translate(-70,-118) scale(1,1)"><g><path fill="none" stroke="none"/><text fill="#000000" stroke="none" font-family="Arial" font-size="13px" font-style="normal" font-weight="normal" text-decoration="none" x="1072.2021484375" y="330.5">(from JavaReverse)</text></g></g><g transform="translate(-70,-118) scale(1,1)"><g><path fill="none" stroke="none"/><text fill="#000000" stroke="none" font-family="Arial" font-size="13px" font-style="normal" font-weight="normal" text-decoration="none" x="997" y="353.5">-people: HashMap {readOnly}</text></g></g><g transform="translate(-70,-118) scale(1,1)"><g><path fill="none" stroke="none"/><text fill="#000000" stroke="none" font-family="Arial" font-size="13px" font-style="normal" font-weight="normal" text-decoration="none" x="997" y="368.5">-groups: HashMap {readOnly}</text></g></g><g transform="translate(-70,-118) scale(1,1)"><g><path fill="none" stroke="none"/><text fill="#000000" stroke="none" font-family="Arial" font-size="13px" font-style="normal" font-weight="normal" text-decoration="none" x="997" y="383.5">-messages: HashMap {readOnly}</text></g></g><g transform="translate(-70,-118) scale(1,1)"><g><path fill="none" stroke="none"/><text fill="#000000" stroke="none" font-family="Arial" font-size="13px" font-style="normal" font-weight="normal" text-decoration="none" x="997" y="398.5">-blockSum: int</text></g></g><g transform="translate(-70,-118) scale(1,1)"><g><path fill="none" stroke="none"/><text fill="#000000" stroke="none" font-family="Arial" font-size="13px" font-style="normal" font-weight="normal" text-decoration="none" x="997" y="421.5">«constructor»+MyNetwork()</text></g></g><g transform="translate(-70,-118) scale(1,1)"><g><path fill="none" stroke="none"/><text fill="#000000" stroke="none" font-family="Arial" font-size="13px" font-style="normal" font-weight="normal" text-decoration="none" x="997" y="436.5">+contains(id: int): boolean</text></g></g><g transform="translate(-70,-118) scale(1,1)"><g><path fill="none" stroke="none"/><text fill="#000000" stroke="none" font-family="Arial" font-size="13px" font-style="normal" font-weight="normal" text-decoration="none" x="997" y="451.5">+getPerson(id: int): Person</text></g></g><g transform="translate(-70,-118) scale(1,1)"><g><path fill="none" stroke="none"/><text fill="#000000" stroke="none" font-family="Arial" font-size="13px" font-style="normal" font-weight="normal" text-decoration="none" x="997" y="466.5">+addPerson(person: Person): void</text></g></g><g transform="translate(-70,-118) scale(1,1)"><g><path fill="none" stroke="none"/><text fill="#000000" stroke="none" font-family="Arial" font-size="13px" font-style="normal" font-weight="normal" text-decoration="none" x="997" y="481.5">+addRelation(id1: int, id2: int, value: int): void</text></g></g><g transform="translate(-70,-118) scale(1,1)"><g><path fill="none" stroke="none"/><text fill="#000000" stroke="none" font-family="Arial" font-size="13px" font-style="normal" font-weight="normal" text-decoration="none" x="997" y="496.5">+queryValue(id1: int, id2: int): int</text></g></g><g transform="translate(-70,-118) scale(1,1)"><g><path fill="none" stroke="none"/><text fill="#000000" stroke="none" font-family="Arial" font-size="13px" font-style="normal" font-weight="normal" text-decoration="none" x="997" y="511.5">+queryPeopleSum(): int</text></g></g><g transform="translate(-70,-118) scale(1,1)"><g><path fill="none" stroke="none"/><text fill="#000000" stroke="none" font-family="Arial" font-size="13px" font-style="normal" font-weight="normal" text-decoration="none" x="997" y="526.5">+isCircle(id1: int, id2: int): boolean</text></g></g><g transform="translate(-70,-118) scale(1,1)"><g><path fill="none" stroke="none"/><text fill="#000000" stroke="none" font-family="Arial" font-size="13px" font-style="normal" font-weight="normal" text-decoration="none" x="997" y="541.5">+queryBlockSum(): int</text></g></g><g transform="translate(-70,-118) scale(1,1)"><g><path fill="none" stroke="none"/><text fill="#000000" stroke="none" font-family="Arial" font-size="13px" font-style="normal" font-weight="normal" text-decoration="none" x="997" y="556.5">+addGroup(group: Group): void</text></g></g><g transform="translate(-70,-118) scale(1,1)"><g><path fill="none" stroke="none"/><text fill="#000000" stroke="none" font-family="Arial" font-size="13px" font-style="normal" font-weight="normal" text-decoration="none" x="997" y="571.5">+getGroup(id: int): Group</text></g></g><g transform="translate(-70,-118) scale(1,1)"><g><path fill="none" stroke="none"/><text fill="#000000" stroke="none" font-family="Arial" font-size="13px" font-style="normal" font-weight="normal" text-decoration="none" x="997" y="586.5">+addToGroup(id1: int, id2: int): void</text></g></g><g transform="translate(-70,-118) scale(1,1)"><g><path fill="none" stroke="none"/><text fill="#000000" stroke="none" font-family="Arial" font-size="13px" font-style="normal" font-weight="normal" text-decoration="none" x="997" y="601.5">+delFromGroup(id1: int, id2: int): void</text></g></g><g transform="translate(-70,-118) scale(1,1)"><g><path fill="none" stroke="none"/><text fill="#000000" stroke="none" font-family="Arial" font-size="13px" font-style="normal" font-weight="normal" text-decoration="none" x="997" y="616.5">+queryLeastConnection(id: int): int</text></g></g><g transform="translate(-70,-118) scale(1,1)"><g><path fill="none" stroke="none"/><text fill="#000000" stroke="none" font-family="Arial" font-size="13px" font-style="normal" font-weight="normal" text-decoration="none" x="997" y="631.5">+queryGroupPeopleSum(id: int): int</text></g></g><g transform="translate(-70,-118) scale(1,1)"><g><path fill="none" stroke="none"/><text fill="#000000" stroke="none" font-family="Arial" font-size="13px" font-style="normal" font-weight="normal" text-decoration="none" x="997" y="646.5">+queryGroupValueSum(id: int): int</text></g></g><g transform="translate(-70,-118) scale(1,1)"><g><path fill="none" stroke="none"/><text fill="#000000" stroke="none" font-family="Arial" font-size="13px" font-style="normal" font-weight="normal" text-decoration="none" x="997" y="661.5">+queryGroupAgeVar(id: int): int</text></g></g><g transform="translate(-70,-118) scale(1,1)"><g><path fill="none" stroke="none"/><text fill="#000000" stroke="none" font-family="Arial" font-size="13px" font-style="normal" font-weight="normal" text-decoration="none" x="997" y="676.5">+containsMessage(id: int): boolean</text></g></g><g transform="translate(-70,-118) scale(1,1)"><g><path fill="none" stroke="none"/><text fill="#000000" stroke="none" font-family="Arial" font-size="13px" font-style="normal" font-weight="normal" text-decoration="none" x="997" y="691.5">+addMessage(message: Message): void</text></g></g><g transform="translate(-70,-118) scale(1,1)"><g><path fill="none" stroke="none"/><text fill="#000000" stroke="none" font-family="Arial" font-size="13px" font-style="normal" font-weight="normal" text-decoration="none" x="997" y="706.5">+getMessage(id: int): Message</text></g></g><g transform="translate(-70,-118) scale(1,1)"><g><path fill="none" stroke="none"/><text fill="#000000" stroke="none" font-family="Arial" font-size="13px" font-style="normal" font-weight="normal" text-decoration="none" x="997" y="721.5">+sendMessage(id: int): void</text></g></g><g transform="translate(-70,-118) scale(1,1)"><g><path fill="none" stroke="none"/><text fill="#000000" stroke="none" font-family="Arial" font-size="13px" font-style="normal" font-weight="normal" text-decoration="none" x="997" y="736.5">+querySocialValue(id: int): int</text></g></g><g transform="translate(-70,-118) scale(1,1)"><g><path fill="none" stroke="none"/><text fill="#000000" stroke="none" font-family="Arial" font-size="13px" font-style="normal" font-weight="normal" text-decoration="none" x="997" y="751.5">+queryReceivedMessages(id: int): Message[*]</text></g></g><g transform="translate(-70,-118) scale(1,1)"><path fill="none" stroke="#000000" d="M 474 532 L 607 531" stroke-miterlimit="10"/></g><g transform="translate(-70,-118) scale(1,1)"><path fill="#FFFFFF" stroke="none" d="M 596.869262004774 535.2858077035821 L 607 531 L 596.805962775087 526.8670101552159 L 585.0006218290254 531.1654088584283"/></g><g transform="translate(-70,-118) scale(1,1)"><path fill="none" stroke="#000000" d="M 596.869262004774 535.2858077035821 L 607 531 L 596.805962775087 526.8670101552159 L 585.0006218290254 531.1654088584283 L 596.869262004774 535.2858077035821" stroke-miterlimit="10"/></g><g transform="translate(-70,-118) scale(1,1)"><path fill="none" stroke="#000000" d="M 856 529 L 991 527" stroke-miterlimit="10"/></g><g transform="translate(-70,-118) scale(1,1)"><path fill="#FFFFFF" stroke="none" d="M 980.9007965877964 531.359597508823 L 991 527 L 980.7760838209158 522.9414857443812 L 969.0024138687805 527.3258901649069"/></g><g transform="translate(-70,-118) scale(1,1)"><path fill="none" stroke="#000000" d="M 980.9007965877964 531.359597508823 L 991 527 L 980.7760838209158 522.9414857443812 L 969.0024138687805 527.3258901649069 L 980.9007965877964 531.359597508823" stroke-miterlimit="10"/></g><g transform="translate(-70,-118) scale(1,1)"><path fill="none" stroke="#000000" d="M 278 303 L 280 128 L 1128 128 L 1128 295" stroke-miterlimit="10"/></g><g transform="translate(-70,-118) scale(1,1)"><path fill="#FFFFFF" stroke="none" d="M 1123.7904822439841 284.83732514237585 L 1128 295 L 1132.2095177560159 284.83732514237585 L 1128 273"/></g><g transform="translate(-70,-118) scale(1,1)"><path fill="none" stroke="#000000" d="M 1123.7904822439841 284.83732514237585 L 1128 295 L 1132.2095177560159 284.83732514237585 L 1128 273 L 1123.7904822439841 284.83732514237585" stroke-miterlimit="10"/></g><g transform="translate(-70,-118) scale(1,1)"><path fill="none" stroke="#000000" d="M 1066 1040 L 1128 1040 L 1129 757" stroke-miterlimit="10"/></g><g transform="translate(-70,-118) scale(1,1)"><path fill="#FFFFFF" stroke="none" d="M 1133.1735811883377 767.1774859402681 L 1129 757 L 1124.754598236312 767.1477368839005 L 1128.92226196942 778.999862654085"/></g><g transform="translate(-70,-118) scale(1,1)"><path fill="none" stroke="#000000" d="M 1133.1735811883377 767.1774859402681 L 1129 757 L 1124.754598236312 767.1477368839005 L 1128.92226196942 778.999862654085 L 1133.1735811883377 767.1774859402681" stroke-miterlimit="10"/></g><g transform="translate(-70,-118) scale(1,1)"><path fill="none" stroke="#000000" d="M 343 1033 L 272 1032 L 274 765" stroke-miterlimit="10"/></g><g transform="translate(-70,-118) scale(1,1)"><path fill="#FFFFFF" stroke="none" d="M 278.13327689400637 775.1939208412402 L 274 765 L 269.7144775665537 775.1308586739934 L 273.8352106155809 786.9993828199516"/></g><g transform="translate(-70,-118) scale(1,1)"><path fill="none" stroke="#000000" d="M 278.13327689400637 775.1939208412402 L 274 765 L 269.7144775665537 775.1308586739934 L 273.8352106155809 786.9993828199516 L 278.13327689400637 775.1939208412402" stroke-miterlimit="10"/></g><g transform="translate(-70,-118) scale(1,1)"><path fill="none" stroke="#000000" d="M 1268 524 L 1423 521" stroke-miterlimit="10"/></g><g transform="translate(-70,-118) scale(1,1)"><path fill="none" stroke="#000000" d="M 1412.920687407359 525.4053896149867 L 1423 521 L 1412.757768845519 516.9879305865705" stroke-miterlimit="10"/></g><g transform="translate(-70,-118) scale(1,1)"><path fill="none" stroke="#000000" d="M 1268 447 L 1391 377" stroke-miterlimit="10"/></g><g transform="translate(-70,-118) scale(1,1)"><path fill="none" stroke="#000000" d="M 1384.249598796242 385.6851645688671 L 1391 377 L 1380.085406770726 378.36808429546005" stroke-miterlimit="10"/></g><g transform="translate(-70,-118) scale(1,1)"><path fill="none" stroke="#000000" d="M 1268 606 L 1367 663" stroke-miterlimit="10"/></g><g transform="translate(-70,-118) scale(1,1)"><path fill="none" stroke="#000000" d="M 1356.0923980561843 661.5772492012763 L 1367 663 L 1360.2931974367605 654.2811239613283" stroke-miterlimit="10"/></g></g></svg>